<?xml version="1.0"?>
<svg xmlns="http://www.w3.org/2000/svg" viewBox="0 0 64 64" width="512" height="512"><g id="Filled_outline" data-name="Filled outline"><circle cx="32" cy="32" r="29" style="fill:#4da6ea"/><path d="M43.794,5.508,40,9l3,1-3.2,3.282L39,17l2,3,3,3,4-2,5,1-1,4,3,3,2-2,3.964,3.593A29,29,0,0,0,43.794,5.508Z" style="fill:#c8d952"/><path d="M60.615,36.7,55,36l-4-2-4-1-5,3,2,2-2,2-5,2v6l4,2,2,3-3,5,1.425,1.425A29.03,29.03,0,0,0,60.615,36.7Z" style="fill:#c8d952"/><path d="M33,18H30l-1-3,3-3L30,9,27,8l-2,2H22L20,9V5.6A28.986,28.986,0,0,0,3.761,38.591L7,36l2,1,2-3,4,2,4-2-1-3-3-1-1-1V26h3l3,1,2-3-2-1-1-3,4-2,1,3,2,2,3-1,6,1Z" style="fill:#c8d952"/><polygon points="27 34 25 37 23 37 20 39 22 42 25 44 25 47 29 48 31 45 30 41 33 38 31 34 27 34" style="fill:#c8d952"/><path d="M61,17V16a2.768,2.768,0,0,0-3-3H57c-.593-1.9-2-3-5-3-2.227,0-4.518.932-5,3H46a2.919,2.919,0,0,0-3,3v1Z" style="fill:#cdeef6"/><path d="M28,56V55a3.883,3.883,0,0,0-4-4,7.228,7.228,0,0,0-1.726.225A6.483,6.483,0,0,0,16.043,47,6.427,6.427,0,0,0,9.7,51.642,5.966,5.966,0,0,0,7,51a3.883,3.883,0,0,0-4,4v1Z" style="fill:#cdeef6"/><path d="M31.9,33.553A1,1,0,0,0,31,33H27a1,1,0,0,0-.832.445L24.465,36H23a1.006,1.006,0,0,0-.555.168l-3,2a1,1,0,0,0-.277,1.387l2,3a1,1,0,0,0,.277.277L24,44.535V47a1,1,0,0,0,.758.97l4,1a1,1,0,0,0,1.074-.415l2-3a1,1,0,0,0,.138-.8l-.863-3.45,2.6-2.6a1,1,0,0,0,.188-1.154Zm-2.6,6.74a1,1,0,0,0-.263.95l.893,3.57-1.364,2.046L26,46.219V44a1,1,0,0,0-.445-.832l-2.834-1.889-1.334-2L23.3,38H25a1,1,0,0,0,.832-.445L27.535,35h2.847l1.4,2.8Z"/><path d="M48.515,36.143a1.006,1.006,0,0,0-.862-.081,1,1,0,0,0-.6.622l-.958,2.873-1.711,2.567-3.625.906A1,1,0,0,0,40,44v2a1,1,0,0,0,.553.9l3.63,1.814.869,2.607,1.9-.632-1-3a1,1,0,0,0-.5-.579L42,45.382v-.6l3.242-.811a1,1,0,0,0,.59-.415l2-3a.944.944,0,0,0,.116-.239l.607-1.817,3.93,2.358A1,1,0,0,0,53,41h3V39H53.277Z"/><path d="M17.758,13.97l4,1,.484-1.94-3.554-.888L17.9,10.553l-1.79.894,1,2A1,1,0,0,0,17.758,13.97Z"/><path d="M10.014,31.165l1.972-.33-.915-5.492L13.414,23H16V21H13a1,1,0,0,0-.707.293l-3,3a1,1,0,0,0-.279.872Z"/><rect x="13" y="16" width="2" height="2"/><rect x="24" y="13" width="2" height="2"/><rect x="47" y="44" width="2" height="2"/><rect x="51" y="46" width="2" height="2"/><path d="M58,12h-.311C56.78,9.983,54.911,9,52,9c-.243,0-.475.02-.709.038A29.988,29.988,0,0,0,8.082,50.091,7.215,7.215,0,0,0,7,50a4.89,4.89,0,0,0-5,5v1a1,1,0,0,0,1,1H15.424a30,30,0,0,0,43.11-39H61a1,1,0,0,0,1-1V16A3.748,3.748,0,0,0,58,12ZM4,32A28.022,28.022,0,0,1,19,7.212V9a1,1,0,0,0,.553.895l2,1A1,1,0,0,0,22,11h3a1,1,0,0,0,.707-.293l1.564-1.563,2.087.7,1.355,2.033-2.42,2.42a1,1,0,0,0-.241,1.023l1,3A1,1,0,0,0,30,19h2.323l1.088,2.722-4.247-.708a.979.979,0,0,0-.48.037l-2.413.805-1.4-1.4-.926-2.776a1,1,0,0,0-1.395-.579l-4,2a1,1,0,0,0-.5,1.211l1,3a1,1,0,0,0,.5.579l.987.493-.948,1.422-2.276-.759A1,1,0,0,0,17,25H14a1,1,0,0,0-1,1v3a1,1,0,0,0,.293.707l1,1a1,1,0,0,0,.391.242l2.525.842.568,1.7L15,34.882,11.447,33.1a1,1,0,0,0-1.279.34L8.657,35.711,7.447,35.1a1,1,0,0,0-1.072.114L4.419,36.784A27.942,27.942,0,0,1,4,32ZM4,55a2.87,2.87,0,0,1,3-3,5.044,5.044,0,0,1,2.187.5,1,1,0,0,0,1.479-.616A5.4,5.4,0,0,1,16.043,48a5.456,5.456,0,0,1,5.283,3.543,1,1,0,0,0,1.244.637A6.317,6.317,0,0,1,24,52a2.87,2.87,0,0,1,3,3Zm37.685,3.271-.426-.426,2.6-4.33a1,1,0,0,0-.025-1.07l-2-3a1.01,1.01,0,0,0-.385-.34L38,47.382v-4.7l4.371-1.748a1.01,1.01,0,0,0,.336-.222l2-2a1,1,0,0,0,0-1.414L43.612,36.2l3.547-2.128,3.492.872,3.9,1.952a1.014,1.014,0,0,0,.323.1l4.567.571A28.1,28.1,0,0,1,41.685,58.271ZM60,32a28.112,28.112,0,0,1-.238,3.587l-4.468-.558L51.447,33.1a.987.987,0,0,0-.205-.075l-4-1a1,1,0,0,0-.757.113l-5,3a1,1,0,0,0-.192,1.564L42.586,38l-1.148,1.148-4.809,1.923A1,1,0,0,0,36,42v6a1,1,0,0,0,.553.9l3.762,1.881,1.5,2.252-2.674,4.457a1,1,0,0,0,.15,1.222l.252.252A27.93,27.93,0,0,1,19.4,57H28a1,1,0,0,0,1-1V55a4.89,4.89,0,0,0-5-5,8.812,8.812,0,0,0-1.115.084A7.538,7.538,0,0,0,16.043,46a7.635,7.635,0,0,0-6.2,3.066A27.907,27.907,0,0,1,4.9,38.964l2.229-1.783,1.428.714a1,1,0,0,0,1.279-.34l1.511-2.266,3.21,1.606a1,1,0,0,0,.894,0l4-2a1,1,0,0,0,.5-1.211l-1-3a1,1,0,0,0-.632-.633l-2.776-.925-.54-.54V27h1.838l2.846.949a1,1,0,0,0,1.148-.394l2-3a1,1,0,0,0-.385-1.45l-1.63-.814-.594-1.785,2.193-1.1.636,1.906a1.011,1.011,0,0,0,.241.391l2,2a1,1,0,0,0,1.023.242l2.765-.922,5.755.959a1,1,0,0,0,1.093-1.358l-2-5A1,1,0,0,0,33,17H30.721l-.576-1.73,2.562-2.563a1,1,0,0,0,.125-1.262l-2-3a1,1,0,0,0-.516-.394l-3-1a1,1,0,0,0-1.023.242L24.586,9h-2.35L21,8.382V6.254a27.954,27.954,0,0,1,20.961-.418L39.323,8.264a1,1,0,0,0,.361,1.685l1.486.5-2.089,2.14a1,1,0,0,0-.262.489l-.8,3.718a1.006,1.006,0,0,0,.146.764l2,3a.953.953,0,0,0,.125.152l3,3a1,1,0,0,0,1.154.188l3.694-1.847,3.634.727-.745,2.982a1,1,0,0,0,.263.95l3,3a1,1,0,0,0,1.414,0l1.327-1.327,2.933,2.659C59.978,31.359,60,31.679,60,32Zm-.27-3.876-2.058-1.865a1,1,0,0,0-1.379.034L55,27.586l-1.893-1.893.863-3.45A1,1,0,0,0,53.2,21.02l-5-1a1,1,0,0,0-.643.085L44.2,21.783l-2.42-2.42L40.066,16.8l.648-3.023,3-3.076a1,1,0,0,0-.4-1.647l-1.391-.464L43.981,6.7a27.928,27.928,0,0,1,4.847,2.938A4.822,4.822,0,0,0,46.288,12H46a3.913,3.913,0,0,0-4,4v1a1,1,0,0,0,1,1H56.244A27.869,27.869,0,0,1,59.73,28.124ZM44,16a1.913,1.913,0,0,1,2-2h1a1,1,0,0,0,.974-.773C48.357,11.583,50.383,11,52,11c2.927,0,3.674,1.1,4.045,2.3A1,1,0,0,0,57,14h1a1.793,1.793,0,0,1,2,2Z"/></g></svg>
