<?xml version="1.0" encoding="UTF-8" standalone="no"?>
<svg
   xmlns:dc="http://purl.org/dc/elements/1.1/"
   xmlns:cc="http://creativecommons.org/ns#"
   xmlns:rdf="http://www.w3.org/1999/02/22-rdf-syntax-ns#"
   xmlns:svg="http://www.w3.org/2000/svg"
   xmlns="http://www.w3.org/2000/svg"
   xmlns:sodipodi="http://sodipodi.sourceforge.net/DTD/sodipodi-0.dtd"
   xmlns:inkscape="http://www.inkscape.org/namespaces/inkscape"
   height="511pt"
   viewBox="0 -42 511.99839 511"
   width="511pt"
   version="1.1"
   id="svg1043"
   sodipodi:docname="everytime.svg"
   inkscape:version="0.92.4 (5da689c313, 2019-01-14)">
  <metadata
     id="metadata1049">
    <rdf:RDF>
      <cc:Work
         rdf:about="">
        <dc:format>image/svg+xml</dc:format>
        <dc:type
           rdf:resource="http://purl.org/dc/dcmitype/StillImage" />
      </cc:Work>
    </rdf:RDF>
  </metadata>
  <defs
     id="defs1047" />
  <sodipodi:namedview
     pagecolor="#ffffff"
     bordercolor="#666666"
     borderopacity="1"
     objecttolerance="10"
     gridtolerance="10"
     guidetolerance="10"
     inkscape:pageopacity="0"
     inkscape:pageshadow="2"
     inkscape:window-width="1366"
     inkscape:window-height="706"
     id="namedview1045"
     showgrid="false"
     inkscape:zoom="0.34637965"
     inkscape:cx="340.66667"
     inkscape:cy="340.66667"
     inkscape:window-x="-8"
     inkscape:window-y="-8"
     inkscape:window-maximized="1"
     inkscape:current-layer="svg1043" />
  <path
     d="m269.308594 215.78125c-1.710938 0-3.417969-.4375-4.957032-1.3125-3.117187-1.78125-5.042968-5.097656-5.042968-8.6875v-20.6875h-22.855469c-21.722656 0-39.394531-17.675781-39.394531-39.398438v-105.800781c0-21.722656 17.671875-39.394531 39.394531-39.394531h236.148437c21.726563 0 39.398438 17.671875 39.398438 39.394531v105.800781c0 21.726563-17.675781 39.398438-39.398438 39.398438h-148.59375l-49.613281 29.300781c-1.566406.925781-3.328125 1.386719-5.085937 1.386719zm-32.855469-195.28125c-10.695313 0-19.398437 8.699219-19.398437 19.394531v105.800781c0 10.695313 8.703124 19.398438 19.398437 19.398438h32.855469c5.523437 0 10 4.476562 10 10v13.171875l36.878906-21.78125c1.542969-.910156 3.296875-1.390625 5.085938-1.390625h151.328124c10.695313 0 19.398438-8.703125 19.398438-19.398438v-105.800781c0-10.695312-8.703125-19.394531-19.398438-19.394531zm0 0"
     id="path1029"
     style="fill:#c8b7b7" />
  <path
     d="m278.136719 54.835938c11.660156 0 23.421875 7.339843 23.421875 20.808593 0 21.8125-31.0625 28.949219-31.0625 38.097657v.902343h26.335937c2.515625 0 4.726563 3.117188 4.726563 6.738281 0 3.617188-2.210938 6.933594-4.726563 6.933594h-35.785156c-2.8125 0-6.835937-1.910156-6.835937-4.824218v-9.75c0-15.78125 31.664062-24.828126 31.664062-37.59375 0-3.21875-2.011719-7.136719-7.640625-7.136719-4.019531 0-7.535156 2.007812-7.535156 7.539062 0 2.914063-3.117188 5.726563-8.246094 5.726563-4.019531 0-7.035156-1.808594-7.035156-8.140625.003906-12.261719 11.261719-19.300781 22.71875-19.300781zm0 0"
     id="path1031"
     style="fill:#c8b7b7" />
  <path
     d="m330.40625 112.835938h-23.523438c-2.914062 0-5.226562-1.910157-5.226562-5.425782 0-.804687.203125-1.910156.804688-3.015625l23.21875-45.535156c1.507812-2.914063 4.023437-4.023437 6.535156-4.023437 2.714844 0 7.839844 2.3125 7.839844 5.933593 0 .601563-.199219 1.203125-.503907 1.910157l-17.789062 35.683593h8.644531v-7.039062c0-3.316407 3.917969-4.722657 7.839844-4.722657 3.917968 0 7.839844 1.40625 7.839844 4.722657v7.039062h4.324218c3.214844 0 4.824219 3.617188 4.824219 7.238281 0 3.617188-2.414063 7.234376-4.824219 7.234376h-4.324218v10.65625c0 3.21875-3.921876 4.824218-7.839844 4.824218-3.921875 0-7.839844-1.605468-7.839844-4.824218zm0 0"
     id="path1033"
     style="fill:#c8b7b7" />
  <path
     d="m402.574219 56.042969c0 .605469-.097657 1.308593-.398438 1.910156l-35.386719 72.476563c-.703124 1.507812-2.609374 2.511718-4.519531 2.511718-3.417969 0-5.628906-2.8125-5.628906-5.328125 0-.601562.199219-1.304687.5-1.910156l35.28125-72.472656c.804687-1.710938 2.414063-2.515625 4.222656-2.515625 2.816407 0 5.929688 2.113281 5.929688 5.328125zm0 0"
     id="path1035"
     style="fill:#c8b7b7" />
  <path
     d="m454.84375 72.226562c0 2.613282-1.609375 6.535157-3.21875 9.550782l-23.519531 45.03125c-.804688 1.507812-2.3125 2.113281-4.421875 2.113281-4.925782 0-9.953125-3.417969-9.953125-7.941406 0-.90625.199219-1.710938.703125-2.613281l24.730468-42.820313v-7.039063h-17.992187v6.734376c0 2.714843-3.820313 4.824218-7.941406 4.824218-4.222657 0-7.742188-2.109375-7.742188-4.824218v-15.578126c0-2.414062 3.417969-4.828124 6.835938-4.828124h35.683593c3.019532 0 6.835938 2.414062 6.835938 4.828124zm0 0"
     id="path1037"
     style="fill:#c8b7b7" />
  <path
     d="m129.5 308.054688c-4.136719 0-7.882812-2.636719-9.351562-6.480469-1.503907-3.941407-.269532-8.582031 3.007812-11.25 3.242188-2.640625 7.886719-2.996094 11.480469-.847657 3.574219 2.140626 5.488281 6.441407 4.660156 10.53125-.929687 4.609376-5.078125 8.046876-9.796875 8.046876zm0 0"
     id="path1039"
     style="fill:#c8b7b7" />
  <path
     d="m300.574219 427.808594c-16.511719 0-34.96875-4.246094-55.308594-12.75-9.015625-3.769532-22.464844-13.023438-41.117187-28.285156-.257813-.207032-.503907-.433594-.738282-.667969l-49.050781-49.050781c-3.90625-3.90625-3.90625-10.238282 0-14.140626 3.902344-3.90625 10.234375-3.90625 14.140625 0l48.695312 48.695313c21.886719 17.875 31.808594 23.332031 35.785157 24.996094 39.511719 16.523437 68.425781 14.851562 88.394531-5.117188l34.804688-34.804687-73.183594-73.183594c-5.683594-5.683594-13.238282-8.8125-21.273438-8.8125s-15.589844 3.128906-21.273437 8.8125l-17.453125 17.449219c-8.414063 8.421875-21.742188 9.15625-30.996094 1.710937-15.035156-12.101562-23.894531-19.425781-45.6875-41.140625-21.742188-21.816406-29.066406-30.675781-41.167969-45.714843-7.445312-9.253907-6.710937-22.578126 1.710938-30.996094l17.453125-17.453125c5.679687-5.683594 8.808594-13.238281 8.808594-21.273438 0-8.035156-3.128907-15.589843-8.808594-21.269531l-73.183594-73.183594-34.804688 34.804688c-19.964843 19.96875-21.640624 48.882812-5.117187 88.394531 1.582031 3.785156 5.847656 11.355469 17.179687 25.976563l20.207032 22.195312 36.304687 36.308594c3.90625 3.90625 3.90625 10.238281 0 14.144531-3.902343 3.902344-10.234375 3.902344-14.140625 0l-36.472656-36.476563c-.113281-.109374-.21875-.222656-.324219-.339843l-20.628906-22.660157c-.175781-.191406-.34375-.394531-.503906-.597656-10.464844-13.480468-17.03125-23.566406-20.070313-30.832031-19.726562-47.175781-16.554687-84.269531 9.425782-110.253906l41.875-41.875c3.90625-3.902344 10.238281-3.902344 14.140624 0l80.253907 80.253906c9.460937 9.460937 14.667969 22.039063 14.667969 35.414063 0 13.378906-5.207032 25.957031-14.667969 35.414062l-17.449219 17.453125c-1.1875 1.183594-1.300781 3.039063-.273438 4.320313 11.664063 14.492187 18.730469 23.035156 39.730469 44.109374 21.046875 20.976563 29.589844 28.039063 44.082031 39.699219 1.28125 1.03125 3.136719.914063 4.320313-.265625l17.453125-17.453125c9.457031-9.460937 22.035156-14.671875 35.414062-14.671875 13.375 0 25.953126 5.210938 35.410157 14.671875l80.253906 80.25c1.875 1.878907 2.929687 4.421875 2.929687 7.070313 0 2.652344-1.054687 5.195312-2.929687 7.070312l-41.875 41.875c-14.78125 14.78125-33.160156 22.179688-54.941406 22.179688zm0 0"
     id="path1041"
     style="fill:#c8b7b7" />
</svg>
