<?xml version="1.0" encoding="UTF-8" standalone="no"?>
<!-- Generator: Adobe Illustrator 19.0.0, SVG Export Plug-In . SVG Version: 6.00 Build 0)  -->

<svg
   xmlns:osb="http://www.openswatchbook.org/uri/2009/osb"
   xmlns:dc="http://purl.org/dc/elements/1.1/"
   xmlns:cc="http://creativecommons.org/ns#"
   xmlns:rdf="http://www.w3.org/1999/02/22-rdf-syntax-ns#"
   xmlns:svg="http://www.w3.org/2000/svg"
   xmlns="http://www.w3.org/2000/svg"
   xmlns:xlink="http://www.w3.org/1999/xlink"
   xmlns:sodipodi="http://sodipodi.sourceforge.net/DTD/sodipodi-0.dtd"
   xmlns:inkscape="http://www.inkscape.org/namespaces/inkscape"
   version="1.1"
   id="Capa_1"
   x="0px"
   y="0px"
   viewBox="0 0 480.006 480.006"
   style="enable-background:new 0 0 480.006 480.006;"
   xml:space="preserve"
   sodipodi:docname="growth.svg"
   inkscape:version="0.92.4 (5da689c313, 2019-01-14)"><metadata
   id="metadata103"><rdf:RDF><cc:Work
       rdf:about=""><dc:format>image/svg+xml</dc:format><dc:type
         rdf:resource="http://purl.org/dc/dcmitype/StillImage" /></cc:Work></rdf:RDF></metadata><defs
   id="defs101"><linearGradient
     id="linearGradient912"
     osb:paint="solid"><stop
       style="stop-color:#000000;stop-opacity:1;"
       offset="0"
       id="stop910" /></linearGradient><linearGradient
     inkscape:collect="always"
     xlink:href="#linearGradient912"
     id="linearGradient914"
     x1="40.002998"
     y1="56.006001"
     x2="144.003"
     y2="56.006001"
     gradientUnits="userSpaceOnUse" /><linearGradient
     inkscape:collect="always"
     xlink:href="#linearGradient912"
     id="linearGradient916"
     x1="40.002998"
     y1="88.005997"
     x2="144.003"
     y2="88.005997"
     gradientUnits="userSpaceOnUse" /><linearGradient
     inkscape:collect="always"
     xlink:href="#linearGradient912"
     id="linearGradient918"
     x1="40.002998"
     y1="120.006"
     x2="112.003"
     y2="120.006"
     gradientUnits="userSpaceOnUse" /><linearGradient
     inkscape:collect="always"
     xlink:href="#linearGradient912"
     id="linearGradient920"
     x1="40.002998"
     y1="152.006"
     x2="112.003"
     y2="152.006"
     gradientUnits="userSpaceOnUse" /><linearGradient
     inkscape:collect="always"
     xlink:href="#linearGradient912"
     id="linearGradient922"
     x1="0.003"
     y1="472.00601"
     x2="480.003"
     y2="472.00601"
     gradientUnits="userSpaceOnUse" /><linearGradient
     inkscape:collect="always"
     xlink:href="#linearGradient912"
     id="linearGradient924"
     x1="31.323"
     y1="180.00272"
     x2="464.00822"
     y2="180.00272"
     gradientUnits="userSpaceOnUse" /><linearGradient
     inkscape:collect="always"
     xlink:href="#linearGradient912"
     id="linearGradient926"
     x1="32.003"
     y1="416.006"
     x2="104.003"
     y2="416.006"
     gradientUnits="userSpaceOnUse" /><linearGradient
     inkscape:collect="always"
     xlink:href="#linearGradient912"
     id="linearGradient928"
     x1="120.003"
     y1="404.006"
     x2="192.003"
     y2="404.006"
     gradientUnits="userSpaceOnUse" /><linearGradient
     inkscape:collect="always"
     xlink:href="#linearGradient912"
     id="linearGradient930"
     x1="208.003"
     y1="384.006"
     x2="280.003"
     y2="384.006"
     gradientUnits="userSpaceOnUse" /><linearGradient
     inkscape:collect="always"
     xlink:href="#linearGradient912"
     id="linearGradient932"
     x1="296.003"
     y1="356.006"
     x2="368.003"
     y2="356.006"
     gradientUnits="userSpaceOnUse" /><linearGradient
     inkscape:collect="always"
     xlink:href="#linearGradient912"
     id="linearGradient934"
     x1="384.003"
     y1="300.006"
     x2="456.003"
     y2="300.006"
     gradientUnits="userSpaceOnUse" /><linearGradient
     inkscape:collect="always"
     xlink:href="#linearGradient912"
     id="linearGradient936" /><linearGradient
     inkscape:collect="always"
     xlink:href="#linearGradient912"
     id="linearGradient938" /><linearGradient
     inkscape:collect="always"
     xlink:href="#linearGradient912"
     id="linearGradient940" /><linearGradient
     inkscape:collect="always"
     xlink:href="#linearGradient912"
     id="linearGradient942" /><linearGradient
     inkscape:collect="always"
     xlink:href="#linearGradient912"
     id="linearGradient944" /><linearGradient
     inkscape:collect="always"
     xlink:href="#linearGradient912"
     id="linearGradient946" /><linearGradient
     inkscape:collect="always"
     xlink:href="#linearGradient912"
     id="linearGradient948" /><linearGradient
     inkscape:collect="always"
     xlink:href="#linearGradient912"
     id="linearGradient950" /><linearGradient
     inkscape:collect="always"
     xlink:href="#linearGradient912"
     id="linearGradient952" /><linearGradient
     inkscape:collect="always"
     xlink:href="#linearGradient912"
     id="linearGradient954" /><linearGradient
     inkscape:collect="always"
     xlink:href="#linearGradient912"
     id="linearGradient956" /><linearGradient
     inkscape:collect="always"
     xlink:href="#linearGradient912"
     id="linearGradient958" /><linearGradient
     inkscape:collect="always"
     xlink:href="#linearGradient912"
     id="linearGradient960" /><linearGradient
     inkscape:collect="always"
     xlink:href="#linearGradient912"
     id="linearGradient962" /><linearGradient
     inkscape:collect="always"
     xlink:href="#linearGradient912"
     id="linearGradient964" /></defs><sodipodi:namedview
   pagecolor="#ffffff"
   bordercolor="#666666"
   borderopacity="1"
   objecttolerance="10"
   gridtolerance="10"
   guidetolerance="10"
   inkscape:pageopacity="0"
   inkscape:pageshadow="2"
   inkscape:window-width="1366"
   inkscape:window-height="706"
   id="namedview99"
   showgrid="false"
   inkscape:zoom="0.49166051"
   inkscape:cx="240.00301"
   inkscape:cy="240.00301"
   inkscape:window-x="-8"
   inkscape:window-y="-8"
   inkscape:window-maximized="1"
   inkscape:current-layer="Capa_1" />
<g
   id="g6"
   style="fill-opacity:1;fill:#c8b7b7">
	<g
   id="g4"
   style="fill-opacity:1;fill:#c8b7b7">
		<rect
   x="40.003"
   y="48.006"
   width="104"
   height="16"
   id="rect2"
   style="fill-opacity:1;fill:#c8b7b7" />
	</g>
</g>
<g
   id="g12"
   style="fill-opacity:1;fill:#c8b7b7">
	<g
   id="g10"
   style="fill-opacity:1;fill:#c8b7b7">
		<rect
   x="40.003"
   y="80.006"
   width="104"
   height="16"
   id="rect8"
   style="fill-opacity:1;fill:#c8b7b7" />
	</g>
</g>
<g
   id="g18"
   style="fill-opacity:1;fill:#c8b7b7">
	<g
   id="g16"
   style="fill-opacity:1;fill:#c8b7b7">
		<rect
   x="40.003"
   y="112.006"
   width="72"
   height="16"
   id="rect14"
   style="fill-opacity:1;fill:#c8b7b7" />
	</g>
</g>
<g
   id="g24"
   style="fill-opacity:1;fill:#c8b7b7">
	<g
   id="g22"
   style="fill-opacity:1;fill:#c8b7b7">
		<rect
   x="40.003"
   y="144.006"
   width="72"
   height="16"
   id="rect20"
   style="fill-opacity:1;fill:#c8b7b7" />
	</g>
</g>
<g
   id="g30"
   style="fill-opacity:1;fill:#c8b7b7">
	<g
   id="g28"
   style="fill-opacity:1;fill:#c8b7b7">
		<rect
   x="0.003"
   y="464.006"
   width="480"
   height="16"
   id="rect26"
   style="fill-opacity:1;fill:#c8b7b7" />
	</g>
</g>
<g
   id="g36"
   style="fill-opacity:1;fill:#c8b7b7">
	<g
   id="g34"
   style="fill-opacity:1;fill:#c8b7b7">
		<path
   d="M463.163,68.43l-32-64c-1.973-3.954-6.776-5.56-10.73-3.587c-0.002,0.001-0.004,0.002-0.006,0.003l-64,32    c-3.954,1.975-5.559,6.782-3.584,10.736s6.782,5.559,10.736,3.584l46.352-23.16l-12.648,36.112    C341.69,218.446,198.501,329.522,31.323,344.006l1.36,16C206.16,344.978,354.737,229.701,412.395,65.398l12.912-36.896    l23.536,47.08c1.975,3.954,6.782,5.559,10.736,3.584C463.534,77.191,465.138,72.385,463.163,68.43z"
   id="path32"
   style="fill-opacity:1;fill:#c8b7b7" />
	</g>
</g>
<g
   id="g42"
   style="fill-opacity:1;fill:#c8b7b7">
	<g
   id="g40"
   style="fill-opacity:1;fill:#c8b7b7">
		<path
   d="M96.003,384.006h-56c-4.418,0-8,3.582-8,8v48c0,4.418,3.582,8,8,8h56c4.418,0,8-3.582,8-8v-48    C104.003,387.588,100.421,384.006,96.003,384.006z M88.003,432.006h-40v-32h40V432.006z"
   id="path38"
   style="fill-opacity:1;fill:#c8b7b7" />
	</g>
</g>
<g
   id="g48"
   style="fill-opacity:1;fill:#c8b7b7">
	<g
   id="g46"
   style="fill-opacity:1;fill:#c8b7b7">
		<path
   d="M184.003,360.006h-56c-4.418,0-8,3.582-8,8v72c0,4.418,3.582,8,8,8h56c4.418,0,8-3.582,8-8v-72    C192.003,363.588,188.421,360.006,184.003,360.006z M176.003,432.006h-40v-56h40V432.006z"
   id="path44"
   style="fill-opacity:1;fill:#c8b7b7" />
	</g>
</g>
<g
   id="g54"
   style="fill-opacity:1;fill:#c8b7b7">
	<g
   id="g52"
   style="fill-opacity:1;fill:#c8b7b7">
		<path
   d="M272.003,320.006h-56c-4.418,0-8,3.582-8,8v112c0,4.418,3.582,8,8,8h56c4.418,0,8-3.582,8-8v-112    C280.003,323.588,276.421,320.006,272.003,320.006z M264.003,432.006h-40v-96h40V432.006z"
   id="path50"
   style="fill-opacity:1;fill:#c8b7b7" />
	</g>
</g>
<g
   id="g60"
   style="fill-opacity:1;fill:#c8b7b7">
	<g
   id="g58"
   style="fill-opacity:1;fill:#c8b7b7">
		<path
   d="M360.003,264.006h-56c-4.418,0-8,3.582-8,8v168c0,4.418,3.582,8,8,8h56c4.418,0,8-3.582,8-8v-168    C368.003,267.588,364.421,264.006,360.003,264.006z M352.003,432.006h-40v-152h40V432.006z"
   id="path56"
   style="fill-opacity:1;fill:#c8b7b7" />
	</g>
</g>
<g
   id="g66"
   style="fill-opacity:1;fill:#c8b7b7">
	<g
   id="g64"
   style="fill-opacity:1;fill:#c8b7b7">
		<path
   d="M448.003,152.006h-56c-4.418,0-8,3.582-8,8v280c0,4.418,3.582,8,8,8h56c4.418,0,8-3.582,8-8v-280    C456.003,155.588,452.421,152.006,448.003,152.006z M440.003,432.006h-40v-264h40V432.006z"
   id="path62"
   style="fill-opacity:1;fill:#c8b7b7" />
	</g>
</g>
<g
   id="g68"
   style="fill-opacity:1;fill:#c8b7b7">
</g>
<g
   id="g70"
   style="fill-opacity:1;fill:#c8b7b7">
</g>
<g
   id="g72"
   style="fill-opacity:1;fill:#c8b7b7">
</g>
<g
   id="g74"
   style="fill-opacity:1;fill:#c8b7b7">
</g>
<g
   id="g76"
   style="fill-opacity:1;fill:#c8b7b7">
</g>
<g
   id="g78"
   style="fill-opacity:1;fill:#c8b7b7">
</g>
<g
   id="g80"
   style="fill-opacity:1;fill:#c8b7b7">
</g>
<g
   id="g82"
   style="fill-opacity:1;fill:#c8b7b7">
</g>
<g
   id="g84"
   style="fill-opacity:1;fill:#c8b7b7">
</g>
<g
   id="g86"
   style="fill-opacity:1;fill:#c8b7b7">
</g>
<g
   id="g88"
   style="fill-opacity:1;fill:#c8b7b7">
</g>
<g
   id="g90"
   style="fill-opacity:1;fill:#c8b7b7">
</g>
<g
   id="g92"
   style="fill-opacity:1;fill:#c8b7b7">
</g>
<g
   id="g94"
   style="fill-opacity:1;fill:#c8b7b7">
</g>
<g
   id="g96"
   style="fill-opacity:1;fill:#c8b7b7">
</g>
</svg>