<?xml version="1.0" encoding="UTF-8" standalone="no"?>
<!-- Generator: Adobe Illustrator 19.0.0, SVG Export Plug-In . SVG Version: 6.00 Build 0)  -->

<svg
   xmlns:osb="http://www.openswatchbook.org/uri/2009/osb"
   xmlns:dc="http://purl.org/dc/elements/1.1/"
   xmlns:cc="http://creativecommons.org/ns#"
   xmlns:rdf="http://www.w3.org/1999/02/22-rdf-syntax-ns#"
   xmlns:svg="http://www.w3.org/2000/svg"
   xmlns="http://www.w3.org/2000/svg"
   xmlns:xlink="http://www.w3.org/1999/xlink"
   xmlns:sodipodi="http://sodipodi.sourceforge.net/DTD/sodipodi-0.dtd"
   xmlns:inkscape="http://www.inkscape.org/namespaces/inkscape"
   version="1.1"
   id="Layer_1"
   x="0px"
   y="0px"
   viewBox="0 0 512 512"
   style="enable-background:new 0 0 512 512;"
   xml:space="preserve"
   sodipodi:docname="handshake.svg"
   inkscape:version="0.92.4 (5da689c313, 2019-01-14)"><metadata
   id="metadata85"><rdf:RDF><cc:Work
       rdf:about=""><dc:format>image/svg+xml</dc:format><dc:type
         rdf:resource="http://purl.org/dc/dcmitype/StillImage" /></cc:Work></rdf:RDF></metadata><defs
   id="defs83"><linearGradient
     id="linearGradient897"
     osb:paint="solid"><stop
       style="stop-color:#000000;stop-opacity:1;"
       offset="0"
       id="stop895" /></linearGradient><linearGradient
     inkscape:collect="always"
     xlink:href="#linearGradient897"
     id="linearGradient899"
     x1="74.642309"
     y1="267.3267"
     x2="407.92965"
     y2="267.3267"
     gradientUnits="userSpaceOnUse" /><linearGradient
     inkscape:collect="always"
     xlink:href="#linearGradient897"
     id="linearGradient901"
     x1="106.666"
     y1="149.33"
     x2="224"
     y2="149.33"
     gradientUnits="userSpaceOnUse" /><linearGradient
     inkscape:collect="always"
     xlink:href="#linearGradient897"
     id="linearGradient903"
     x1="384.81078"
     y1="309.12815"
     x2="437.33383"
     y2="309.12815"
     gradientUnits="userSpaceOnUse" /><linearGradient
     inkscape:collect="always"
     xlink:href="#linearGradient897"
     id="linearGradient905"
     x1="288.01549"
     y1="319.9912"
     x2="373.36451"
     y2="319.9912"
     gradientUnits="userSpaceOnUse" /><linearGradient
     inkscape:collect="always"
     xlink:href="#linearGradient897"
     id="linearGradient907"
     x1="256.00509"
     y1="346.66698"
     x2="330.67096"
     y2="346.66698"
     gradientUnits="userSpaceOnUse" /><linearGradient
     inkscape:collect="always"
     xlink:href="#linearGradient897"
     id="linearGradient909"
     x1="213.34306"
     y1="367.98693"
     x2="288.01459"
     y2="367.98693"
     gradientUnits="userSpaceOnUse" /><linearGradient
     inkscape:collect="always"
     xlink:href="#linearGradient897"
     id="linearGradient911"
     x1="0"
     y1="202.66675"
     x2="127.99661"
     y2="202.66675"
     gradientUnits="userSpaceOnUse" /><linearGradient
     inkscape:collect="always"
     xlink:href="#linearGradient897"
     id="linearGradient913"
     x1="363.04636"
     y1="223.9965"
     x2="512"
     y2="223.9965"
     gradientUnits="userSpaceOnUse" /><linearGradient
     inkscape:collect="always"
     xlink:href="#linearGradient897"
     id="linearGradient915" /><linearGradient
     inkscape:collect="always"
     xlink:href="#linearGradient897"
     id="linearGradient917" /><linearGradient
     inkscape:collect="always"
     xlink:href="#linearGradient897"
     id="linearGradient919" /><linearGradient
     inkscape:collect="always"
     xlink:href="#linearGradient897"
     id="linearGradient921" /><linearGradient
     inkscape:collect="always"
     xlink:href="#linearGradient897"
     id="linearGradient923" /><linearGradient
     inkscape:collect="always"
     xlink:href="#linearGradient897"
     id="linearGradient925" /><linearGradient
     inkscape:collect="always"
     xlink:href="#linearGradient897"
     id="linearGradient927" /><linearGradient
     inkscape:collect="always"
     xlink:href="#linearGradient897"
     id="linearGradient929" /><linearGradient
     inkscape:collect="always"
     xlink:href="#linearGradient897"
     id="linearGradient931" /><linearGradient
     inkscape:collect="always"
     xlink:href="#linearGradient897"
     id="linearGradient933" /><linearGradient
     inkscape:collect="always"
     xlink:href="#linearGradient897"
     id="linearGradient935" /><linearGradient
     inkscape:collect="always"
     xlink:href="#linearGradient897"
     id="linearGradient937" /><linearGradient
     inkscape:collect="always"
     xlink:href="#linearGradient897"
     id="linearGradient939" /><linearGradient
     inkscape:collect="always"
     xlink:href="#linearGradient897"
     id="linearGradient941" /><linearGradient
     inkscape:collect="always"
     xlink:href="#linearGradient897"
     id="linearGradient943" /></defs><sodipodi:namedview
   pagecolor="#ffffff"
   bordercolor="#666666"
   borderopacity="1"
   objecttolerance="10"
   gridtolerance="10"
   guidetolerance="10"
   inkscape:pageopacity="0"
   inkscape:pageshadow="2"
   inkscape:window-width="1366"
   inkscape:window-height="706"
   id="namedview81"
   showgrid="false"
   inkscape:zoom="0.4609375"
   inkscape:cx="256"
   inkscape:cy="256"
   inkscape:window-x="-8"
   inkscape:window-y="-8"
   inkscape:window-maximized="1"
   inkscape:current-layer="Layer_1" />
<g
   id="g6"
   style="fill-opacity:1;fill:#c8b7b7">
	<g
   id="g4"
   style="fill-opacity:1;fill:#c8b7b7">
		<path
   d="M404.267,315.41c-10.048-20.949-45.995-50.027-80.725-78.123c-19.371-15.659-37.675-30.464-49.344-42.133    c-2.923-2.944-7.296-3.883-11.157-2.496c-7.189,2.603-11.627,4.608-15.125,6.165c-5.333,2.389-7.125,3.2-14.315,3.925    c-3.179,0.32-6.037,2.027-7.808,4.672c-15.083,22.549-30.699,20.629-41.131,17.131c-3.328-1.109-3.925-2.539-4.245-3.904    c-2.24-9.365,9.003-31.168,23.573-45.739c34.667-34.688,52.544-43.371,90.304-26.496c42.837,19.157,85.76,34.155,86.187,34.304    c5.611,1.941,11.648-1.003,13.589-6.571c1.92-5.568-1.003-11.648-6.571-13.589c-0.427-0.149-42.496-14.848-84.48-33.643    c-48.917-21.867-75.755-7.467-114.091,30.891c-14.592,14.592-34.411,44.117-29.291,65.771c2.197,9.216,8.683,16.043,18.325,19.221    c24.171,7.979,46.229,0.341,62.656-21.461c6.784-1.045,10.475-2.581,16.021-5.077c2.005-0.896,4.352-1.941,7.467-3.2    c12.203,11.456,28.672,24.789,46.016,38.805c31.36,25.365,66.923,54.123,74.923,70.763c3.947,8.213-0.299,13.568-3.179,16.021    c-4.224,3.627-10.005,4.779-13.141,2.581c-3.456-2.368-7.957-2.517-11.52-0.384c-3.584,2.133-5.589,6.165-5.141,10.304    c0.725,6.784-5.483,10.667-8.171,12.011c-6.827,3.456-13.952,2.859-16.619,0.384c-2.987-2.773-7.275-3.584-11.072-2.176    c-3.797,1.429-6.443,4.928-6.827,8.981c-0.64,6.997-5.824,13.717-12.587,16.341c-3.264,1.237-8,1.984-12.245-1.899    c-2.645-2.389-6.315-3.307-9.749-2.475c-3.477,0.853-6.272,3.371-7.488,6.72c-0.405,1.067-1.323,3.627-11.307,3.627    c-7.104,0-19.883-4.8-26.133-8.939c-7.488-4.928-54.443-39.957-94.997-73.92c-5.696-4.8-15.552-15.083-24.256-24.171    c-7.723-8.064-14.784-15.381-18.411-18.453c-4.544-3.84-11.264-3.264-15.04,1.259c-3.797,4.501-3.243,11.243,1.259,15.04    c3.307,2.795,9.707,9.557,16.768,16.917c9.515,9.941,19.349,20.224,25.963,25.771c39.723,33.259,87.467,69.163,96.981,75.413    c7.851,5.163,24.768,12.416,37.867,12.416c10.517,0,18.603-2.411,24.213-7.125c7.509,2.923,16.043,2.944,24.256-0.256    c9.707-3.755,17.685-11.328,22.208-20.501c8.405,1.792,18.027,0.533,26.773-3.861c8.555-4.309,14.741-10.901,17.813-18.603    c8.491,0.448,17.237-2.56,24.469-8.768C407.979,346.407,411.349,330.109,404.267,315.41z"
   id="path2"
   style="fill-opacity:1;fill:#c8b7b7" />
	</g>
</g>
<g
   id="g12"
   style="fill-opacity:1;fill:#c8b7b7">
	<g
   id="g10"
   style="fill-opacity:1;fill:#c8b7b7">
		<path
   d="M213.333,138.663h-96c-5.888,0-10.667,4.779-10.667,10.667s4.779,10.667,10.667,10.667h96    c5.888,0,10.667-4.779,10.667-10.667S219.221,138.663,213.333,138.663z"
   id="path8"
   style="fill-opacity:1;fill:#c8b7b7" />
	</g>
</g>
<g
   id="g18"
   style="fill-opacity:1;fill:#c8b7b7">
	<g
   id="g16"
   style="fill-opacity:1;fill:#c8b7b7">
		<path
   d="M435.52,292.711c-3.307-4.885-9.92-6.229-14.805-2.901l-31.189,20.949c-4.885,3.285-6.187,9.92-2.901,14.805    c2.069,3.051,5.44,4.715,8.875,4.715c2.027,0,4.096-0.576,5.931-1.813l31.189-20.949    C437.504,304.231,438.805,297.597,435.52,292.711z"
   id="path14"
   style="fill-opacity:1;fill:#c8b7b7" />
	</g>
</g>
<g
   id="g24"
   style="fill-opacity:1;fill:#c8b7b7">
	<g
   id="g22"
   style="fill-opacity:1;fill:#c8b7b7">
		<path
   d="M369.301,343.613c-7.637-6.016-41.792-40.981-62.912-62.997c-4.075-4.267-10.837-4.416-15.083-0.32    c-4.267,4.075-4.395,10.837-0.32,15.083c5.483,5.717,53.845,56.128,65.088,65.003c1.941,1.536,4.288,2.283,6.592,2.283    c3.136,0,6.272-1.408,8.405-4.075C374.72,353.981,373.931,347.261,369.301,343.613z"
   id="path20"
   style="fill-opacity:1;fill:#c8b7b7" />
	</g>
</g>
<g
   id="g30"
   style="fill-opacity:1;fill:#c8b7b7">
	<g
   id="g28"
   style="fill-opacity:1;fill:#c8b7b7">
		<path
   d="M326.677,365.01c-12.779-10.219-44.885-44.331-52.139-52.224c-4.011-4.352-10.731-4.608-15.083-0.64    c-4.331,3.989-4.629,10.752-0.64,15.083c0.384,0.405,38.699,41.771,54.528,54.443c1.963,1.557,4.331,2.325,6.656,2.325    c3.115,0,6.229-1.387,8.341-3.989C332.011,375.399,331.264,368.679,326.677,365.01z"
   id="path26"
   style="fill-opacity:1;fill:#c8b7b7" />
	</g>
</g>
<g
   id="g36"
   style="fill-opacity:1;fill:#c8b7b7">
	<g
   id="g34"
   style="fill-opacity:1;fill:#c8b7b7">
		<path
   d="M284.224,386.493c-15.211-12.821-46.336-45.952-52.416-52.459c-4.032-4.309-10.795-4.544-15.083-0.512    c-4.309,4.032-4.523,10.773-0.512,15.083c8.747,9.365,38.528,40.939,54.251,54.208c2.005,1.685,4.437,2.517,6.869,2.517    c3.029,0,6.059-1.301,8.171-3.797C289.301,397.01,288.725,390.29,284.224,386.493z"
   id="path32"
   style="fill-opacity:1;fill:#c8b7b7" />
	</g>
</g>
<g
   id="g42"
   style="fill-opacity:1;fill:#c8b7b7">
	<g
   id="g40"
   style="fill-opacity:1;fill:#c8b7b7">
		<path
   d="M124.672,120.253C106.389,102.93,33.28,97.319,11.307,96.018c-3.029-0.149-5.824,0.853-7.957,2.88    C1.216,100.903,0,103.719,0,106.663v192c0,5.888,4.779,10.667,10.667,10.667h64c4.608,0,8.704-2.965,10.133-7.36    c1.557-4.779,38.315-117.589,43.157-173.056C128.235,125.671,127.04,122.471,124.672,120.253z M66.88,287.997H21.333V118.098    c34.283,2.709,71.275,8.597,84.715,15.125C100.395,179.943,74.816,262.951,66.88,287.997z"
   id="path38"
   style="fill-opacity:1;fill:#c8b7b7" />
	</g>
</g>
<g
   id="g48"
   style="fill-opacity:1;fill:#c8b7b7">
	<g
   id="g46"
   style="fill-opacity:1;fill:#c8b7b7">
		<path
   d="M501.333,117.33c-83.755,0-130.219,21.44-132.16,22.336c-2.773,1.301-4.843,3.712-5.696,6.635s-0.427,6.059,1.173,8.661    c13.184,21.227,54.464,139.115,62.4,167.872c1.28,4.629,5.483,7.829,10.283,7.829h64c5.888,0,10.667-4.779,10.667-10.667v-192    C512,122.087,507.221,117.33,501.333,117.33z M490.667,309.33h-45.355c-10.112-32.939-39.979-118.827-56.64-154.325    c16.277-5.525,51.243-15.019,101.995-16.213V309.33z"
   id="path44"
   style="fill-opacity:1;fill:#c8b7b7" />
	</g>
</g>
<g
   id="g50"
   style="fill-opacity:1;fill:#c8b7b7">
</g>
<g
   id="g52"
   style="fill-opacity:1;fill:#c8b7b7">
</g>
<g
   id="g54"
   style="fill-opacity:1;fill:#c8b7b7">
</g>
<g
   id="g56"
   style="fill-opacity:1;fill:#c8b7b7">
</g>
<g
   id="g58"
   style="fill-opacity:1;fill:#c8b7b7">
</g>
<g
   id="g60"
   style="fill-opacity:1;fill:#c8b7b7">
</g>
<g
   id="g62"
   style="fill-opacity:1;fill:#c8b7b7">
</g>
<g
   id="g64"
   style="fill-opacity:1;fill:#c8b7b7">
</g>
<g
   id="g66"
   style="fill-opacity:1;fill:#c8b7b7">
</g>
<g
   id="g68"
   style="fill-opacity:1;fill:#c8b7b7">
</g>
<g
   id="g70"
   style="fill-opacity:1;fill:#c8b7b7">
</g>
<g
   id="g72"
   style="fill-opacity:1;fill:#c8b7b7">
</g>
<g
   id="g74"
   style="fill-opacity:1;fill:#c8b7b7">
</g>
<g
   id="g76"
   style="fill-opacity:1;fill:#c8b7b7">
</g>
<g
   id="g78"
   style="fill-opacity:1;fill:#c8b7b7">
</g>
</svg>