<?xml version="1.0" encoding="UTF-8" standalone="no"?>
<svg
   xmlns:dc="http://purl.org/dc/elements/1.1/"
   xmlns:cc="http://creativecommons.org/ns#"
   xmlns:rdf="http://www.w3.org/1999/02/22-rdf-syntax-ns#"
   xmlns:svg="http://www.w3.org/2000/svg"
   xmlns="http://www.w3.org/2000/svg"
   xmlns:sodipodi="http://sodipodi.sourceforge.net/DTD/sodipodi-0.dtd"
   xmlns:inkscape="http://www.inkscape.org/namespaces/inkscape"
   height="512"
   viewBox="0 0 64 64"
   width="512"
   version="1.1"
   id="svg3280"
   sodipodi:docname="knowledge.svg"
   inkscape:version="0.92.4 (5da689c313, 2019-01-14)">
  <metadata
     id="metadata3286">
    <rdf:RDF>
      <cc:Work
         rdf:about="">
        <dc:format>image/svg+xml</dc:format>
        <dc:type
           rdf:resource="http://purl.org/dc/dcmitype/StillImage" />
      </cc:Work>
    </rdf:RDF>
  </metadata>
  <defs
     id="defs3284" />
  <sodipodi:namedview
     pagecolor="#ffffff"
     bordercolor="#666666"
     borderopacity="1"
     objecttolerance="10"
     gridtolerance="10"
     guidetolerance="10"
     inkscape:pageopacity="0"
     inkscape:pageshadow="2"
     inkscape:window-width="1366"
     inkscape:window-height="706"
     id="namedview3282"
     showgrid="false"
     inkscape:zoom="0.4609375"
     inkscape:cx="256"
     inkscape:cy="256"
     inkscape:window-x="-8"
     inkscape:window-y="-8"
     inkscape:window-maximized="1"
     inkscape:current-layer="svg3280" />
  <path
     d="m8 60h4v1a1 1 0 0 0 1 1h4a1 1 0 0 0 1-1v-.9l18.9 1.9a.848.848 0 0 0 .1 0 1 1 0 0 0 .447-.1l17.824-8.912a3.46 3.46 0 0 0 1.655-4.354 3.27 3.27 0 0 0 -1.869-1.934 4.245 4.245 0 0 0 -3.451.378l-9.911 3.6a3 3 0 0 0 -2.695-1.678h-21v-1a1 1 0 0 0 -1-1h-4a1 1 0 0 0 -1 1v1h-4a1 1 0 0 0 -1 1v9a1 1 0 0 0 1 1zm10-9h21a1 1 0 0 1 0 2h-10v2h10a3 3 0 0 0 2.9-2.262l10.445-3.8a.975.975 0 0 0 .105-.045 2.517 2.517 0 0 1 1.9-.324 1.312 1.312 0 0 1 .723.8 1.447 1.447 0 0 1 -.693 1.822l-17.568 8.785-18.812-1.876zm-4-2h2v11h-2zm-5 2h3v7h-3z"
     id="path3262"
     style="fill:#c8b7b7" />
  <path
     d="m25 32.563v9.437a1 1 0 0 0 1 1h1v3a1 1 0 0 0 1 1h8a1 1 0 0 0 1-1v-3h1a1 1 0 0 0 1-1v-9.437a12.325 12.325 0 0 0 6-10.563 13 13 0 0 0 -26 0 12.325 12.325 0 0 0 6 10.563zm10 12.437h-6v-2h6zm2-4h-10v-2h10zm0-4h-10v-2h10zm-6-4v-6h2v6zm1-22a11.013 11.013 0 0 1 11 11 10.316 10.316 0 0 1 -5.5 9.135 1 1 0 0 0 -.5.865v1h-2v-6h2v-2h-10v2h2v6h-2v-1a1 1 0 0 0 -.5-.865 10.316 10.316 0 0 1 -5.5-9.135 11.013 11.013 0 0 1 11-11z"
     id="path3264"
     style="fill:#c8b7b7" />
  <path
     d="m32 15v-2c-3.113 0-9 1.881-9 9h2c0-6.883 6.717-7 7-7z"
     id="path3266"
     style="fill:#c8b7b7" />
  <path
     d="m23 24h2v2h-2z"
     id="path3268"
     style="fill:#c8b7b7" />
  <path
     d="m31 2h2v5h-2z"
     id="path3270"
     style="fill:#c8b7b7" />
  <path
     d="m18 5.172h2v5.657h-2z"
     transform="matrix(.707 -.707 .707 .707 -.092 15.778)"
     id="path3272"
     style="fill:#c8b7b7" />
  <path
     d="m12 20h5v2h-5z"
     id="path3274"
     style="fill:#c8b7b7" />
  <path
     d="m42.172 7h5.657v2h-5.657z"
     transform="matrix(.707 -.707 .707 .707 7.523 34.163)"
     id="path3276"
     style="fill:#c8b7b7" />
  <path
     d="m47 20h5v2h-5z"
     id="path3278"
     style="fill:#c8b7b7" />
</svg>
