<?xml version="1.0" encoding="UTF-8" standalone="no"?>
<svg
   xmlns:osb="http://www.openswatchbook.org/uri/2009/osb"
   xmlns:dc="http://purl.org/dc/elements/1.1/"
   xmlns:cc="http://creativecommons.org/ns#"
   xmlns:rdf="http://www.w3.org/1999/02/22-rdf-syntax-ns#"
   xmlns:svg="http://www.w3.org/2000/svg"
   xmlns="http://www.w3.org/2000/svg"
   xmlns:xlink="http://www.w3.org/1999/xlink"
   xmlns:sodipodi="http://sodipodi.sourceforge.net/DTD/sodipodi-0.dtd"
   xmlns:inkscape="http://www.inkscape.org/namespaces/inkscape"
   viewBox="0 0 753.64818 1200.4162"
   version="1.1"
   id="svg1602"
   sodipodi:docname="logo-xmas.svg"
   inkscape:version="0.92.4 (5da689c313, 2019-01-14)"
   width="753.64819"
   height="1200.4163">
  <metadata
     id="metadata1606">
    <rdf:RDF>
      <cc:Work
         rdf:about="">
        <dc:format>image/svg+xml</dc:format>
        <dc:type
           rdf:resource="http://purl.org/dc/dcmitype/StillImage" />
        <dc:title>Ресурс 2</dc:title>
      </cc:Work>
    </rdf:RDF>
  </metadata>
  <sodipodi:namedview
     pagecolor="#ffffff"
     bordercolor="#666666"
     borderopacity="1"
     objecttolerance="10"
     gridtolerance="10"
     guidetolerance="10"
     inkscape:pageopacity="0"
     inkscape:pageshadow="2"
     inkscape:window-width="1366"
     inkscape:window-height="706"
     id="namedview1604"
     showgrid="false"
     inkscape:snap-page="false"
     inkscape:zoom="0.18636645"
     inkscape:cx="-214.65584"
     inkscape:cy="522.14521"
     inkscape:window-x="-8"
     inkscape:window-y="-8"
     inkscape:window-maximized="1"
     inkscape:current-layer="Слой_1-2-2"
     fit-margin-top="0"
     fit-margin-left="0"
     fit-margin-right="0"
     fit-margin-bottom="0" />
  <defs
     id="defs1552">
    <linearGradient
       id="linearGradient2382"
       osb:paint="solid">
      <stop
         style="stop-color:#43001f;stop-opacity:0.14901961;"
         offset="0"
         id="stop2380" />
    </linearGradient>
    <style
       id="style1550">.cls-1{fill:#0f4c81;}.cls-2{fill:none;stroke:#201600;stroke-linecap:round;stroke-linejoin:round;stroke-width:26.14px;}</style>
    <linearGradient
       inkscape:collect="always"
       xlink:href="#linearGradient2382"
       id="linearGradient2384"
       x1="-0.50003792"
       y1="256.0105"
       x2="512.50302"
       y2="256.0105"
       gradientUnits="userSpaceOnUse" />
    <style
       id="style1550-3">.cls-1{fill:#0f4c81;}.cls-2{fill:none;stroke:#201600;stroke-linecap:round;stroke-linejoin:round;stroke-width:26.14px;}</style>
  </defs>
  <title
     id="title1554">Ресурс 2</title>
  <g
     id="Слой_2"
     data-name="Слой 2"
     transform="matrix(1,0,0,1.0018792,-16.341084,184.99799)">
    <g
       id="Слой_1-2"
       data-name="Слой 1"
       transform="matrix(1,0,0,1.032821,3.7941742,-185.99479)">
      <path
         class="cls-2"
         d="M 194.81396,857.82465 C 184.3636,834.85979 189.69207,739.3333 259.73786,666.65114 394.73786,527.25114 708.23,212 756.92,15.98 517.32,165.55 438.92,291.88 312.57,453.07 234.16,357.23 96.15,228.89 29.41,13.07 192.17,129.14 258.58,195.48 328.91,299.3"
         id="path1596"
         inkscape:connector-curvature="0"
         style="fill:none;stroke:#201600;stroke-width:26.13955116;stroke-linecap:round;stroke-linejoin:round;stroke-miterlimit:4;stroke-dasharray:none"
         sodipodi:nodetypes="cccccc" />
      <g
         id="g902"
         transform="matrix(0.93328736,0,0,0.8521811,224.83072,298.79817)">
        <path
           id="path817"
           d="m 52.636316,212.15696 c 0,0 43.470991,-94.96731 153.413934,-116.417466 0,0 50.74727,-50.151651 170.12109,10.688006 0,0 32.82862,32.28892 36.54756,47.49146 0,0 53.44219,20.33814 42.08556,83.98106 0,0 7.95466,18.47535 -2.34428,58.21479 l -6.837,87.86338 -46.82296,23.59717 0.44216,-15.98279 c 0,0 -28.92169,-67.68847 -27.92686,-86.7685 0,0 -9.34057,-10.70865 -13.08028,10.24886 l 5.04816,34.76341 -297.767703,-83.74885 z"
           style="fill:#e14b4b"
           inkscape:connector-curvature="0" />
        <g
           id="g825">
	<path
   id="path819"
   d="m 399.636,206.895 c -9.008,-39.904 -22.176,-78.864 -39.44,-116.032 8.064,5.776 21.424,15.824 29.952,24.832 5.792,30.048 8.912,60.576 9.488,91.2 z"
   style="fill:#d03f3e"
   inkscape:connector-curvature="0" />

	<path
   id="path821"
   d="m 283.316,119.487 c 3.504,-0.192 6.544,1.232 9.2,3.504 -3.024,-1.232 -6.16,-2.368 -9.2,-3.504 z"
   style="fill:#d03f3e"
   inkscape:connector-curvature="0" />

	<path
   id="path823"
   d="m 383.14,281.871 c -1.136,-0.768 -10.8,-7.296 -10.896,12.512 -4.272,-5.68 -7.872,-12.128 -11.952,-17.92 -11.376,-16.304 -27.872,-28.336 -43.984,-40.096 -30.816,-22.464 -62.56,-45.312 -99.152,-56.112 18.016,-0.944 35.552,5.504 52.32,12.032 33.184,12.896 67.392,27.776 89.296,55.744 -0.096,-18.768 -10.144,-35.84 -19.904,-51.856 -12.8,-21.04 -25.6,-42.096 -38.4,-63.136 -2.176,-3.6 -4.832,-7.488 -7.968,-10.048 14.224,5.408 27.968,12.032 38.672,22.656 14.224,14.128 21.328,33.648 27.584,52.704 9.024,27.504 17.184,55.456 24.384,83.52 z"
   style="fill:#d03f3e"
   inkscape:connector-curvature="0" />

</g>
        <g
           id="g831"
           transform="matrix(0.99126086,0.13961804,-0.12463942,0.99126086,32.268543,-9.680172)">
	<path
   id="path827"
   d="m 0.34,359.407 c 0,-12.336 -0.112,1.824 -0.224,-3.344 -0.448,13.872 -0.16,-62.56 11.648,-70.624 8.448,-8.496 16.176,-34.256 22.944,-24.384 5.776,-4.816 9.808,2.288 13.056,-6.208 3.248,-1.696 5.712,-9.36 8.336,-1.2 2.624,-1.888 5.424,5.52 9.344,3.248 3.92,5.856 8.944,2.272 16.064,7.12 0,5.552 2.64,-6.672 6.624,-0.768 4,5.088 9.344,1.056 14.784,-2.224 5.44,-5.696 10.976,-8.912 15.312,-3.536 3.264,3.824 7.808,4.784 12.816,-0.816 4.992,-4.64 10.448,-2.992 15.472,2.224 5.04,7.008 9.664,7.536 13.04,3.008 3.376,4.96 5.472,-1.616 5.472,1.504 0,0.224 1.28,4.768 3.584,-0.144 2.304,-1.264 5.6,2.576 9.648,-0.224 4.048,5.84 8.832,-1.04 14.064,0.016 5.248,-5.312 10.944,-9.6 16.832,0.56 5.888,-4.416 11.952,-2.976 17.936,1.424 5.984,-1.904 11.872,-0.496 17.408,2.608 5.52,-1.264 10.688,7.808 15.2,4.08 4.528,-4.416 8.4,-8.304 11.36,5.888 0,-2.944 1.392,4.064 3.888,0.928 2.496,1.568 6.08,-1.52 10.464,2.608 4.384,-0.336 9.552,2 15.232,4.016 5.664,-6.08 11.824,4.032 18.176,5.184 6.352,3.248 12.896,11.072 19.312,6.064 6.432,-6.256 12.736,3.056 18.64,6.688 5.904,11.312 11.392,2.56 16.16,7.056 4.768,2.352 8.832,0.784 11.856,7.152 0,0.144 2.576,8.416 3.024,8.816 0.832,1.28 1.744,11.008 2.624,10.304 3.568,9.616 5.648,52.752 -0.304,69.744 0,-0.048 -0.704,-2.976 -2.144,2.496 -1.44,0.992 -3.616,-2.208 -6.528,5.296 -2.912,4.08 -6.592,1.728 -11.024,4.752 -4.432,7.472 -9.648,4.192 -15.632,0.88 -5.984,-3.344 -12.768,-5.952 -20.352,-6.32 0,-7.568 -0.448,-2.336 -1.312,-0.448 -0.864,3.968 -2.16,-3.792 -3.856,-1.248 -1.696,-9.664 -3.792,1.072 -6.256,-1.92 -2.48,-2.64 -5.328,0.112 -8.544,-2.432 -3.216,7.92 -6.784,-3.184 -10.688,-2.816 -3.904,-5.696 -8.16,-10.208 -12.72,-3.072 -4.56,0.784 -9.44,-8.992 -14.608,-3.168 -5.168,-5.2 -10.64,5.248 -16.384,-3.136 -5.744,2.32 -11.76,-4.624 -18.016,-2.96 -6.272,-2.4 -12.784,1.328 -19.536,-2.64 -6.752,0.48 -13.728,1.776 -20.912,-2.192 -7.184,-0.848 -14.592,-5.84 -22.176,-1.584 -7.584,-3.136 -15.36,-0.864 -23.296,-0.848 -7.936,-2.8 -16.048,-1.008 -24.304,0.016 -14.416,-3.632 -27.072,-0.896 -38.16,0.208 -11.088,1.248 -20.608,-0.992 -28.784,-1.088 -8.176,-1.968 -15.008,-2.8 -20.72,-1.952 -5.712,6.8 -10.304,-2.944 -13.984,-2.432 -3.68,-1.056 -6.464,-7.216 -8.56,-2.544 -2.096,-0.208 -3.52,-6.016 -4.48,-2.288 -0.96,-1.12 -1.456,0.88 -1.712,-1.648 -0.256,3.28 -0.272,7.824 -0.272,-0.64 0,10.048 -2.816,2.304 -6.064,-2.736 -3.28,0.672 -6.992,5.952 -8.768,-10.304 z"
   style="fill:#dae5ef"
   inkscape:connector-curvature="0" />

	<path
   id="path829"
   d="m 505.476,359.663 c 14.112,22.32 3.504,56.384 -18.816,70.496 -22.32,14.112 -51.856,7.44 -65.968,-14.88 -14.112,-22.32 -7.44,-51.856 14.88,-65.968 22.304,-14.112 55.792,-11.984 69.904,10.352 z"
   style="fill:#dae5ef"
   inkscape:connector-curvature="0" />

</g>
        <g
           id="g837"
           inkscape:transform-center-x="-26.828863"
           inkscape:transform-center-y="-53.657726"
           transform="translate(-19.040787,49.919044)">
	<path
   id="path833"
   d="m 503.716,411.695 c -4.16,7.52 -10.08,13.92 -17.12,18.4 -22.24,14.24 -51.84,7.52 -65.92,-14.88 -14.08,-22.24 -7.52,-51.84 14.88,-65.92 1.12,-0.64 2.08,-1.28 3.2,-1.76 -7.68,14.56 -7.52,32.8 1.92,47.68 13.44,21.44 41.28,28.48 63.04,16.48 z"
   style="fill:#cbd6e0"
   inkscape:connector-curvature="0" />

	<path
   id="path835"
   d="m 440.948,348.511 c 0.192,-0.64 0.096,-1.296 -0.112,-1.92 -0.08,0.032 -0.144,0.08 -0.224,0.112 z"
   style="fill:#cbd6e0"
   inkscape:connector-curvature="0" />

</g>
        <g
           id="g839">
</g>
        <g
           id="g841">
</g>
        <g
           id="g843">
</g>
        <g
           id="g845">
</g>
        <g
           id="g847">
</g>
        <g
           id="g849">
</g>
        <g
           id="g851">
</g>
        <g
           id="g853">
</g>
        <g
           id="g855">
</g>
        <g
           id="g857">
</g>
        <g
           id="g859">
</g>
        <g
           id="g861">
</g>
        <g
           id="g863">
</g>
        <g
           id="g865">
</g>
        <g
           id="g867">
</g>
        <g
           transform="matrix(1.0714813,0,0,1.1361693,-1269.6544,-372.84939)"
           data-name="Слой 2"
           id="Слой_2-1">
          <g
             data-name="Слой 1"
             id="Слой_1-2-2">
            <path
               style="fill:#0f4c81;stroke-width:0.74306929"
               inkscape:connector-curvature="0"
               id="path1598"
               d="m 1578.9793,813.8368 a 1.0946014,0.97461309 0.13839324 0 1 0.9524,0.48745 2.4254477,2.1595743 0.13840812 0 1 0.3463,1.22262 l -0.028,3.39465 a 2.4254477,2.1595743 0.13840812 0 1 -0.371,1.22101 1.0946014,0.97461309 0.13839324 0 1 -0.9546,0.4705 l -15.424,5.39935 -6.3254,13.63029 a 1.0946014,0.97461309 0.13839324 0 1 -0.5469,0.8477 2.4254477,2.1595743 0.13840812 0 1 -1.3729,0.30759 l -3.8126,-0.0269 a 2.4254477,2.1595743 0.13840812 0 1 -1.3716,-0.33105 1.0946014,0.97461309 0.13839324 0 1 -0.5289,-0.85014 l 0.1167,-12.0753 -33.5676,-30.29397 -12.2564,39.80538 a 3.8665417,3.442698 0.13840603 0 1 -3.8418,3.36076 l -7.6264,-0.0608 a 3.6066723,3.2113151 0.13841081 0 1 -2.7376,-1.0459 3.7641689,3.3515472 0.1384029 0 1 -1.0504,-2.39649 l 0.5725,-64.0921 -21.2764,-19.16378 q -2.9573,-2.78233 -6.6316,-11.15618 -3.6744,-8.37385 -1.4513,-10.35786 2.2207,-1.99787 11.605,1.42008 9.3841,3.41795 12.3336,6.20133 l 21.2824,19.19844 71.9697,0.56177 a 3.8665417,3.442698 0.13840603 0 1 3.7767,3.42265 l -0.064,6.79037 a 3.8665417,3.442698 0.13840603 0 1 -3.8419,3.36077 l -44.8974,10.26483 33.6814,30.39908 z"
               class="cls-1"
               inkscape:transform-center-x="44.364938"
               inkscape:transform-center-y="1.8812185" />
          </g>
        </g>
      </g>
      <g
         id="g906"
         transform="matrix(0.86660795,0,0,0.76233208,171.85752,781.98257)">
        <path
           id="path904"
           d="M 486.966,53.235 C 453.228,83.6 424.795,67.585 381.979,37.601 359.544,21.89 338.354,7.051 316.001,7.051 c -28.369,0 -47.912,16.032 -60,26.537 -12.088,-10.504 -31.631,-26.537 -60,-26.537 -21.767,0 -42.869,14.591 -65.209,30.038 C 87.267,67.185 58.429,83.289 25.036,53.235 L 0.129,30.82 0.001,64.327 c -0.119,31.12 9.978,57.347 30,77.987 v 68.334 c 0,135.992 91.139,255.772 221.88,293.125 l 4.121,1.177 4.121,-1.177 C 391.327,466.287 482.002,346.169 482.002,210.648 v -68.644 c 20.021,-20.615 30.118,-46.738 30,-77.677 L 511.874,30.819 Z M 83.73,96.15 c 23.363,-6.201 45.018,-21.174 64.124,-34.385 17.572,-12.15 35.743,-24.714 48.147,-24.714 18.338,0 31.344,11.346 41.793,20.463 11.013,9.609 9.636,7.391 18.207,13.419 8.575,-6.031 7.191,-3.809 18.208,-13.419 10.45,-9.117 23.454,-20.463 41.792,-20.463 12.893,0 30.32,12.204 48.77,25.124 18.917,13.248 40.359,28.263 63.591,34.394 17.009,4.488 33.334,3.743 48.815,-2.193 -17.403,48.698 -79.908,63.609 -131.176,63.609 -36.203,0 -66.068,-9.971 -77.941,-26.021 l -12.059,-16.303 -12.059,16.303 c -11.873,16.05 -42.121,26.021 -78.941,26.021 -51.604,0 -113.314,-15.091 -130.318,-63.806 15.478,5.855 31.882,6.526 49.047,1.971 z m 277.271,92.901 c 0,41.355 -33.645,75 -75,75 h -60 c -41.907,0 -76,-33.645 -76,-75 0,-0.48 0.026,-0.958 0.035,-1.438 4.908,0.242 9.895,0.372 14.965,0.372 38.016,0 70.552,-9.398 90.918,-25.717 20.172,16.504 51.911,25.717 90.082,25.717 5.07,0 10.057,-0.129 14.965,-0.369 0.009,0.478 0.035,0.956 0.035,1.435 z M 256.002,473.716 c -115.618,-35 -196,-142.558 -196,-263.067 v -45.866 c 17.089,9.328 37.375,15.977 60.104,19.701 -0.066,1.521 -0.104,3.044 -0.104,4.568 0,57.897 47.551,105 106,105 h 60 c 57.897,0 105,-47.103 105,-105 0,-1.514 -0.038,-3.028 -0.103,-4.541 23.126,-3.757 43.756,-10.509 61.103,-20.011 v 46.149 c -0.001,120.509 -80.383,228.067 -196,263.067 z"
           inkscape:connector-curvature="0"
           style="stroke:url(#linearGradient2384)" />
      </g>
      <path
         style="opacity:1;fill:#b5d1d5;fill-opacity:0.9748744;stroke:none;stroke-width:35.66897583;stroke-linejoin:round;stroke-miterlimit:4;stroke-dasharray:none;stroke-dashoffset:0;stroke-opacity:0.19597988"
         d="m 367.35127,1201.5711 c -35.15244,-10.9036 -67.00732,-27.7721 -93.75027,-49.6448 -14.01943,-11.4663 -35.09007,-33.9686 -45.3783,-48.4614 -17.31168,-24.3867 -31.00439,-55.128 -37.07615,-83.2392 -4.10629,-19.0114 -5.56083,-37.30726 -5.56083,-69.94676 l -4.86273,-28.36863 -2.51624,-4.67705 c -5.64114,-6.24406 -10.50288,-21.41599 -14.26705,-31.834 -2.32746,-6.44163 -2.98012,-11.96974 -3.50793,-29.71252 -0.35666,-11.98914 -0.27395,-21.79845 0.18378,-21.79845 0.68911,0 8.8449,6.39433 26.86095,21.05961 9.51835,7.74805 27.84511,10.00742 42.37685,5.22432 9.09746,-2.99441 27.19658,-12.4902 44.89665,-23.55523 18.00645,-11.25655 32.63411,-18.46794 42.68203,-21.0421 16.22084,-4.15559 35.43355,0.25641 53.35611,12.25266 l 10.50637,7.03232 6.44281,-4.66602 c 10.12202,-7.33058 24.31195,-13.51281 35.00155,-15.24936 19.47085,-3.16309 32.38184,1.44797 71.19199,25.4257 34.54169,21.34059 50.21841,26.06734 68.11699,20.53825 7.70721,-2.38085 11.79625,-4.94861 25.16133,-15.80036 l 15.95856,-12.95752 -0.75692,21.32587 c -0.50339,14.18264 -2.51605,23.59744 -3.00873,28.70382 -1.16669,12.09218 -10.76476,25.07757 -15.51454,33.38465 l -3.79904,7.22698 -2.6082,39.3884 c -2.3476,35.45298 -3.05304,43.46272 -5.5021,54.81502 -18.41971,85.3823 -81.87503,153.1506 -170.80489,182.4144 -10.12586,3.3321 -19.16179,6.0241 -20.07985,5.9823 -0.91807,-0.042 -7.10205,-1.7613 -13.7422,-3.8209 z m 38.26728,-27.5908 c 65.90004,-25.3276 116.42406,-77.312 136.63824,-140.5878 7.28232,-22.7956 8.7904,-34.50375 8.48954,-65.90914 -0.14779,-15.42687 -0.44524,-28.22538 -0.66099,-28.44113 -0.21575,-0.21575 -6.60883,1.6934 -14.20686,4.24257 -7.59801,2.54916 -19.28506,5.74 -25.97118,7.09078 l -12.1566,2.45594 -0.53698,7.93591 c -2.05031,30.30153 -18.6019,54.46987 -47.17116,68.87837 -16.74994,8.4475 -24.20088,9.4833 -68.22055,9.4833 -44.90808,0 -51.78656,-0.9321 -69.46991,-9.4137 -27.83872,-13.3525 -45.41904,-38.01722 -48.26847,-67.71928 l -0.90082,-9.39011 -11.63432,-2.30979 c -6.39888,-1.27038 -17.06716,-4.17081 -23.70731,-6.4454 -6.64014,-2.27459 -13.20006,-4.49323 -14.57759,-4.93032 -2.41044,-0.76483 -2.47851,0.41036 -1.81064,31.26211 0.74335,34.33809 1.7092,41.10359 9.26824,64.92219 5.5299,17.4247 13.97904,34.6518 25.1001,51.1771 28.49879,42.3474 68.54443,72.8259 118.81619,90.43 18.28602,6.4034 16.98743,6.49 40.98107,-2.7316 z m 19.35904,-159.7097 c 16.59742,-4.3231 32.1192,-15.63313 40.06699,-29.19502 3.96765,-6.77028 7.60998,-19.27502 7.60998,-26.12638 v -4.49542 l -5.70113,0.83476 c -8.59219,1.25804 -36.88475,-1.46666 -50.88696,-4.90064 -6.81816,-1.67213 -17.49275,-5.59784 -23.72131,-8.72382 l -11.32468,-5.68358 -12.20037,5.8544 c -6.71022,3.21993 -17.3314,7.12596 -23.60265,8.68007 -13.13208,3.25434 -42.2665,6.00108 -50.63948,4.7742 l -5.70113,-0.83539 v 5.20451 c 0,6.725 3.45016,18.29436 7.54201,25.2904 4.23342,7.23811 17.1913,19.50911 24.71244,23.40251 13.51988,6.9987 19.33647,7.7752 59.01721,7.8778 29.0871,0.075 38.62017,-0.3412 44.82908,-1.9584 z m -89.82095,-84.41717 c 19.45987,-4.00224 29.79661,-10.18835 42.67534,-25.53937 1.85692,-2.21338 3.61189,-3.72251 3.89995,-3.35361 7.40237,9.47962 14.79459,16.96623 19.44091,19.68915 20.90041,12.24846 62.36105,15.74546 100.17083,8.44893 34.29457,-6.61817 55.56192,-18.82513 67.71988,-38.86962 4.26439,-7.03059 3.83776,-7.99415 -2.84333,-6.4215 -8.08759,1.90372 -25.97718,1.76395 -34.59649,-0.2703 -12.71944,-3.00193 -30.07742,-11.34137 -52.70157,-25.31986 -45.95719,-28.39496 -51.0483,-28.48651 -88.09563,-1.58414 -4.05787,2.94667 -8.34731,5.37286 -9.53208,5.39153 -1.18479,0.0187 -8.98852,-4.80954 -17.34163,-10.72936 -29.28621,-20.75508 -36.59984,-20.16655 -79.89377,6.42914 -32.8363,20.1715 -46.50241,25.68567 -66.27869,26.74295 -7.00904,0.37471 -16.06378,0.0668 -20.12165,-0.68428 -4.05786,-0.75106 -7.61269,-1.1339 -7.89962,-0.85074 -0.28692,0.28315 1.52403,3.91621 4.02433,8.07345 13.57453,22.57028 41.8622,36.00751 87.04477,41.34807 10.01831,1.18416 44.02261,-0.38087 54.32845,-2.50044 z"
         id="path2422"
         inkscape:connector-curvature="0"
         transform="matrix(1,0,0,0.96640592,12.54691,1.301093)"
         sodipodi:nodetypes="cscsscccssssssscssssscssccssccccssssccscssscsssscccccssccsccssccscsccsccsssssssccsccssss" />
    </g>
  </g>
</svg>
