<?xml version="1.0" encoding="UTF-8" standalone="no"?>
<svg
   xmlns:dc="http://purl.org/dc/elements/1.1/"
   xmlns:cc="http://creativecommons.org/ns#"
   xmlns:rdf="http://www.w3.org/1999/02/22-rdf-syntax-ns#"
   xmlns:svg="http://www.w3.org/2000/svg"
   xmlns="http://www.w3.org/2000/svg"
   xmlns:sodipodi="http://sodipodi.sourceforge.net/DTD/sodipodi-0.dtd"
   xmlns:inkscape="http://www.inkscape.org/namespaces/inkscape"
   viewBox="0 0 784.3466 322.62891"
   version="1.1"
   id="svg54"
   sodipodi:docname="name.svg"
   width="784.34662"
   height="322.62891"
   inkscape:version="0.92.4 (5da689c313, 2019-01-14)">
  <metadata
     id="metadata58">
    <rdf:RDF>
      <cc:Work
         rdf:about="">
        <dc:format>image/svg+xml</dc:format>
        <dc:type
           rdf:resource="http://purl.org/dc/dcmitype/StillImage" />
        <dc:title>Ресурс 2</dc:title>
      </cc:Work>
    </rdf:RDF>
  </metadata>
  <sodipodi:namedview
     pagecolor="#ffffff"
     bordercolor="#666666"
     borderopacity="1"
     objecttolerance="10"
     gridtolerance="10"
     guidetolerance="10"
     inkscape:pageopacity="0"
     inkscape:pageshadow="2"
     inkscape:window-width="1366"
     inkscape:window-height="706"
     id="namedview56"
     showgrid="false"
     fit-margin-top="0"
     fit-margin-left="0"
     fit-margin-right="0"
     fit-margin-bottom="0"
     inkscape:zoom="0.32761625"
     inkscape:cx="366.74303"
     inkscape:cy="225.27685"
     inkscape:window-x="-8"
     inkscape:window-y="-8"
     inkscape:window-maximized="1"
     inkscape:current-layer="svg54" />
  <defs
     id="defs4">
    <style
       id="style2">.cls-1{fill:#0f4c81;}.cls-2{fill:none;stroke:#201600;stroke-linecap:round;stroke-linejoin:round;stroke-width:26.14px;}</style>
  </defs>
  <title
     id="title6">Ресурс 2</title>
  <g
     id="Слой_2"
     data-name="Слой 2"
     transform="translate(-0.02340312,-1118.0911)">
    <g
       id="Слой_1-2"
       data-name="Слой 1">
      <path
         class="cls-1"
         d="m 32.83,1170.87 a 10.7,10.7 0 0 1 -1.59,5.36 q -1.26,1.68 -2.51,1.51 c -0.84,-0.11 -1.48,-0.81 -1.93,-2.09 -0.45,-1.28 -0.33,-3.1 0.33,-5.44 q 2.17,-15.74 8,-25.54 a 52.33,52.33 0 0 1 13.4,-15.41 47.09,47.09 0 0 1 15.91,-7.87 81.89,81.89 0 0 1 15.56,-2.77 q 12.56,-0.83 21.85,3 a 39.24,39.24 0 0 1 15.24,10.88 45.9,45.9 0 0 1 8.79,16.24 56.73,56.73 0 0 1 2.51,18.84 59.8,59.8 0 0 1 -3.85,19 53,53 0 0 1 -10,16.66 48.11,48.11 0 0 1 -16,11.72 q -9.54,4.44 -22.1,4.1 -3.69,15.74 -8.21,29.05 a 136.59,136.59 0 0 1 -10,23.11 61.27,61.27 0 0 1 -12.06,15.66 24.19,24.19 0 0 1 -14.17,6.56 22,22 0 0 1 -13.14,-2.6 28.48,28.48 0 0 1 -9.79,-9.38 49.93,49.93 0 0 1 -6.28,-14.4 79.77,79.77 0 0 1 -2.68,-17.42 91.34,91.34 0 0 1 1.09,-18.59 80.07,80.07 0 0 1 4.94,-17.83 61,61 0 0 1 8.86,-15.14 40.18,40.18 0 0 1 12.81,-10.63 20.88,20.88 0 0 1 10.19,-2.69 13.49,13.49 0 0 1 8,2.68 14.88,14.88 0 0 1 4.86,6.78 22.1,22.1 0 0 1 1.17,9.54 30.77,30.77 0 0 1 -3.18,11 39.75,39.75 0 0 1 -8.29,11.05 q -3,3.69 -5.44,4.1 -2.44,0.41 -3.52,-0.75 a 2.76,2.76 0 0 1 -0.33,-3.1 q 0.75,-1.92 4.1,-2.76 6.19,-9.21 8.21,-16.91 2.02,-7.7 0.75,-12.47 -1.33,-4.8 -5.33,-5.92 -4,-1.12 -9.52,3 a 50.76,50.76 0 0 0 -15,16.66 73.24,73.24 0 0 0 -7.69,20.34 80.51,80.51 0 0 0 -1.67,21.27 89.19,89.19 0 0 0 3,19.26 44.34,44.34 0 0 0 6.45,14.15 q 4,5.53 8.71,6.2 5.19,0.67 9.8,-7.28 4.61,-7.95 8.62,-21.1 4,-13.15 7.54,-29.72 3.54,-16.57 6.61,-33.24 3.1,-16.66 5.86,-31.65 2.76,-14.99 5.11,-24.87 0.83,-3.35 4.86,-5.44 a 20.65,20.65 0 0 1 8.46,-2.34 15.42,15.42 0 0 1 8,1.59 6.13,6.13 0 0 1 3.43,6.2 q -2.35,19.76 -6.2,38.76 -3.85,19 -7.7,35.75 a 20.42,20.42 0 0 0 11.55,-5 37.72,37.72 0 0 0 8.54,-11 61.06,61.06 0 0 0 5.44,-14.9 89.79,89.79 0 0 0 2.26,-16.75 80.75,80.75 0 0 0 -1,-16.49 49.62,49.62 0 0 0 -4.52,-14.32 27.48,27.48 0 0 0 -8.21,-10 18.77,18.77 0 0 0 -11.89,-3.52 60.41,60.41 0 0 0 -14.4,2.34 42.74,42.74 0 0 0 -14.74,7.45 45.4,45.4 0 0 0 -11.89,14.4 q -4.98,9.25 -5.98,23.12 z"
         id="path8"
         inkscape:connector-curvature="0"
         style="fill:#0f4c81" />
      <path
         class="cls-1"
         d="m 181.69,1200 a 4.43,4.43 0 0 1 2.6,1 2.21,2.21 0 0 1 0.84,1.84 2.71,2.71 0 0 1 -1.09,1.84 6.54,6.54 0 0 1 -3.18,1.17 20.26,20.26 0 0 0 -6,1.59 25.34,25.34 0 0 0 -6.87,4.27 35.9,35.9 0 0 0 -6.28,7.12 32,32 0 0 0 -4.44,9.8 q -1.17,4.52 -2.51,9.13 -1.34,4.61 -2.51,8.79 -1.17,4.18 -2.09,7.37 a 29.3,29.3 0 0 0 -1.09,4.86 8.65,8.65 0 0 1 -4.35,5.78 16.78,16.78 0 0 1 -7.87,2.51 14,14 0 0 1 -7.7,-1.67 q -3.52,-1.93 -3.68,-6.61 a 42.65,42.65 0 0 1 0.67,-8.37 q 0.84,-5.36 2.09,-12.47 1.25,-7.11 2.68,-15.66 1.42,-8.54 2.43,-17.92 a 15,15 0 0 1 4.27,-5.86 26.93,26.93 0 0 1 6.45,-4.1 28.22,28.22 0 0 1 7.2,-2.18 23.57,23.57 0 0 1 6.45,-0.25 6.94,6.94 0 0 1 4.19,1.76 q 1.42,1.43 0.59,3.94 a 67.6,67.6 0 0 0 -2.51,9.8 q -1,5.44 -2,10.8 a 42.12,42.12 0 0 1 5.94,-8.37 40.46,40.46 0 0 1 6.53,-5.78 25.13,25.13 0 0 1 6.28,-3.26 13.08,13.08 0 0 1 4.96,-0.87 z"
         id="path10"
         inkscape:connector-curvature="0"
         style="fill:#0f4c81" />
      <path
         class="cls-1"
         d="m 241.47,1218.25 q -3.35,6.53 -6.78,14.4 -3.43,7.87 -7,14.82 a 63.76,63.76 0 0 1 -7.54,11.64 q -3.93,4.69 -8.12,5 -9.38,1.34 -16.16,-3.43 a 20.87,20.87 0 0 1 -8.62,-12.81 42.71,42.71 0 0 1 -1,-12.06 q 0.34,-6.36 1.17,-11.8 a 88.89,88.89 0 0 1 1.84,-9.21 q 1,-3.77 1.17,-4.27 a 11.43,11.43 0 0 1 5.78,-6 19.87,19.87 0 0 1 8.71,-2.26 12.76,12.76 0 0 1 7.7,2.18 q 3.27,2.26 2.76,7.28 a 49.72,49.72 0 0 0 -1.34,6.36 q -0.67,4.19 -1.26,9.21 -0.59,5.02 -0.84,10.3 -0.25,5.27 -0.25,9.71 a 55.51,55.51 0 0 0 0.42,7.45 q 0.42,3 1.42,3.52 1.34,0.67 3,-1.26 a 44.37,44.37 0 0 0 4.52,-7.2 q 2.84,-5.27 7.12,-14.4 4.28,-9.13 10.8,-22.86 a 16.18,16.18 0 0 1 6.78,-8.62 19.06,19.06 0 0 1 9.13,-2.93 12.83,12.83 0 0 1 7.7,1.93 5.13,5.13 0 0 1 2.51,5.61 q -1,14.4 -2.6,30.06 -1.6,15.66 -4.19,30.64 a 247.36,247.36 0 0 1 -6.53,28.21 87.84,87.84 0 0 1 -10,22.69 42.15,42.15 0 0 1 -14.57,14.23 q -8.46,4.77 -19.84,2.59 a 15.73,15.73 0 0 1 -9.8,-6.28 34.57,34.57 0 0 1 -6,-12.47 46.39,46.39 0 0 1 -1.34,-15.41 39.18,39.18 0 0 1 4.19,-15.24 31.78,31.78 0 0 1 10.55,-11.81 q 6.95,-4.77 17.83,-5.11 2.85,-0.5 3.94,0.25 a 1.93,1.93 0 0 1 1,1.76 2.44,2.44 0 0 1 -1.09,1.76 2.94,2.94 0 0 1 -2.51,0.42 q -11.72,0.5 -18.25,5.44 a 26.94,26.94 0 0 0 -9.21,11.89 35.2,35.2 0 0 0 -2.26,14.74 48.16,48.16 0 0 0 2.76,14.15 29.73,29.73 0 0 0 5.83,10.14 q 3.52,3.77 7,2.76 4.35,-1.34 8,-8 a 96.08,96.08 0 0 0 6.95,-16.58 229.62,229.62 0 0 0 5.94,-22.19 q 2.68,-12.23 4.69,-24.62 2.01,-12.39 3.52,-24 1.53,-11.57 2.37,-20.32 z"
         id="path12"
         inkscape:connector-curvature="0"
         style="fill:#0f4c81" />
      <path
         class="cls-1"
         d="m 331.89,1211.89 q -3.35,7 -8,15.07 -4.65,8.07 -9.46,15 a 97.19,97.19 0 0 1 -9.46,11.72 q -4.61,4.77 -7.79,5.27 -7.7,1.17 -13.06,-1.84 a 20.58,20.58 0 0 1 -8.29,-8.62 33.85,33.85 0 0 1 -3.52,-13.14 53,53 0 0 1 1.09,-15.32 55.83,55.83 0 0 1 5.78,-15.24 46.74,46.74 0 0 1 10.38,-12.89 41.17,41.17 0 0 1 14.82,-8.12 43.63,43.63 0 0 1 19.26,-1.17 7.18,7.18 0 0 1 3.85,2.18 18.35,18.35 0 0 1 3.18,4.35 34.28,34.28 0 0 1 2.26,5.27 21.09,21.09 0 0 1 1.09,4.77 q 0.67,-2.68 1,-4.77 0.33,-2.09 0.67,-3.68 0.33,-1.59 0.75,-3.1 a 16.15,16.15 0 0 1 1.42,-3.35 11.15,11.15 0 0 1 5.95,-4.94 24.92,24.92 0 0 1 8.54,-1.93 14.84,14.84 0 0 1 7.29,1.34 4,4 0 0 1 2.34,4.86 q -2.51,12.22 -4.19,25 -1.68,12.78 -3.43,26.46 -1.76,13.65 -4.19,28 -2.43,14.35 -6.45,29.64 a 64.85,64.85 0 0 1 -5.19,13.4 52.67,52.67 0 0 1 -8.37,12.06 31.22,31.22 0 0 1 -11,7.7 17.48,17.48 0 0 1 -12.81,0.17 17.83,17.83 0 0 1 -9,-6.7 25.38,25.38 0 0 1 -4.19,-11.05 40.91,40.91 0 0 1 0.59,-13.9 54.9,54.9 0 0 1 5.53,-15.07 70,70 0 0 1 10.72,-14.6 73.47,73.47 0 0 1 15.66,-12.64 79.5,79.5 0 0 0 1.59,-8.21 q 0.59,-4.18 1.09,-9.13 0.5,-4.95 1.26,-10.55 0.78,-5.6 2.29,-12.3 z m -31.31,40 q 1,0.84 4.35,-3.43 3.35,-4.27 7.7,-11.05 4.35,-6.78 9.13,-14.9 4.78,-8.12 8.79,-15 a 11.94,11.94 0 0 0 0.5,-7.2 29.5,29.5 0 0 0 -2.59,-7.45 36,36 0 0 0 -3.6,-5.78 q -1.84,-2.34 -2.51,-2.18 -4.69,0.84 -9,5.44 a 51.17,51.17 0 0 0 -7.87,11.22 83.54,83.54 0 0 0 -5.94,14.4 87.83,87.83 0 0 0 -3.35,14.9 42.47,42.47 0 0 0 0.08,12.81 q 0.96,5.73 4.31,8.24 z m 24.61,4.86 a 70.72,70.72 0 0 0 -23.28,28.3 51.93,51.93 0 0 0 -4.1,13.81 38.72,38.72 0 0 0 -0.08,11.64 16.41,16.41 0 0 0 3.1,7.79 5.4,5.4 0 0 0 5.28,2.26 q 2.51,-0.34 4.61,-3.77 a 40.34,40.34 0 0 0 3.77,-8.71 q 1.67,-5.27 3.18,-12 1.51,-6.73 2.76,-13.65 1.26,-7 2.43,-13.65 1.17,-6.65 2.33,-12 z"
         id="path14"
         inkscape:connector-curvature="0"
         style="fill:#0f4c81" />
      <path
         class="cls-1"
         d="m 445.25,1135.37 a 33.86,33.86 0 0 1 11.47,-12 35.45,35.45 0 0 1 13.65,-5 26.68,26.68 0 0 1 13,1.34 19.21,19.21 0 0 1 13.14,19.34 q 0,7.37 -5.36,16.91 -1.85,3 -3.35,3.52 a 2.13,2.13 0 0 1 -2.34,-0.33 2.82,2.82 0 0 1 -0.67,-2.43 3.48,3.48 0 0 1 1.67,-2.6 q 4,-6.86 4.35,-12.73 a 19.13,19.13 0 0 0 -1.84,-10 14.84,14.84 0 0 0 -6.2,-6.36 15.43,15.43 0 0 0 -8.62,-1.84 19,19 0 0 0 -9.21,3.43 25.19,25.19 0 0 0 -8,9.46 q -2,3.85 0.17,11.39 a 172,172 0 0 0 6.28,17.5 q 4.1,10 9.13,21.68 5.03,11.68 9,23.86 a 148.47,148.47 0 0 1 5.69,24 57,57 0 0 1 -0.75,22.1 38.34,38.34 0 0 1 -10.46,18.16 q -8,8 -23.19,12.14 a 33.14,33.14 0 0 1 -18.5,-1.51 31.92,31.92 0 0 1 -13.81,-10.3 34.61,34.61 0 0 1 -6.7,-16.83 q -1.34,-9.88 3,-21.27 a 46.73,46.73 0 0 1 4.52,-8.71 23.66,23.66 0 0 1 8.87,-7.87 q 4.35,-1.67 6.45,-0.92 a 3.34,3.34 0 0 1 2.43,2.43 4,4 0 0 1 -0.84,3.26 3.36,3.36 0 0 1 -3.18,1.42 6.22,6.22 0 0 0 -3.18,1 20,20 0 0 0 -3.43,2.68 33.72,33.72 0 0 0 -3.27,3.6 36.27,36.27 0 0 0 -2.51,3.6 31.39,31.39 0 0 0 -4.46,13.51 30.65,30.65 0 0 0 1.51,12.06 29.89,29.89 0 0 0 5.69,10 33.49,33.49 0 0 0 8.12,6.95 23.08,23.08 0 0 0 8.88,3.18 12.53,12.53 0 0 0 8,-1.42 q 4.85,-2.68 6.28,-9 a 47,47 0 0 0 0.59,-14.82 158.82,158.82 0 0 0 -3.18,-19 q -2.35,-10.46 -5.11,-21.68 -2.76,-11.22 -5.27,-22.77 a 199,199 0 0 1 -3.6,-22.35 102.61,102.61 0 0 1 -0.17,-20.26 37.8,37.8 0 0 1 5.31,-16.52 z"
         id="path16"
         inkscape:connector-curvature="0"
         style="fill:#0f4c81" />
      <path
         class="cls-1"
         d="m 518.76,1278 a 5.41,5.41 0 0 1 -2.26,3.6 14.09,14.09 0 0 1 -4.69,2.18 25.46,25.46 0 0 1 -6,0.84 41.66,41.66 0 0 1 -6,-0.25 22.44,22.44 0 0 1 -4.86,-1.09 q -2.09,-0.75 -2.43,-1.93 1.34,-13.56 2.85,-30.06 1.51,-16.5 4.1,-33.32 a 326,326 0 0 1 6.7,-32.57 134.47,134.47 0 0 1 10.38,-27.88 59.23,59.23 0 0 1 15.24,-19.34 q 9,-7.2 21.35,-6.7 a 14.23,14.23 0 0 1 6.61,2.26 14.69,14.69 0 0 1 5.44,6 21,21 0 0 1 1.93,9.88 q -0.08,5.95 -3.6,13.65 a 82.53,82.53 0 0 1 -11.3,17.25 167.49,167.49 0 0 1 -21.22,20.99 9.54,9.54 0 0 0 -0.92,2.59 q -0.42,1.76 -0.75,3.77 -0.33,2.01 -0.67,3.94 c -0.23,1.28 -0.39,2.26 -0.5,2.93 q 5.69,-3.85 10.47,-7 4.78,-3.15 8.71,-6 l 7.37,-5.36 q 3.43,-2.51 6.45,-4.86 a 2.38,2.38 0 0 1 2,-0.59 1.32,1.32 0 0 1 1,1 3.29,3.29 0 0 1 -0.25,1.84 3.63,3.63 0 0 1 -1.42,1.76 q -2.35,1.84 -5.11,3.85 l -6.7,4.86 -9.38,6.78 q -5.44,3.94 -13.31,9.29 9,-2.17 14.82,-1.17 a 17.18,17.18 0 0 1 9.13,4.19 17.74,17.74 0 0 1 4.77,8 43.69,43.69 0 0 1 1.67,10.3 87.28,87.28 0 0 1 -0.17,10.8 q -0.42,5.36 -0.59,9.71 a 37.92,37.92 0 0 0 0.25,7 q 0.42,2.68 2.26,2.68 a 29.61,29.61 0 0 0 10.3,-6.7 105.87,105.87 0 0 0 10.57,-11.87 q 5.44,-7 11.05,-15.74 5.61,-8.74 11.8,-18.25 a 4.15,4.15 0 0 1 1.67,-1.17 1,1 0 0 1 1,0.17 3,3 0 0 1 0.59,0.92 2.58,2.58 0 0 1 0.25,0.92 333.87,333.87 0 0 1 -20.93,32.15 q -9,11.89 -15.82,17.67 -6.82,5.78 -11.8,6.7 a 16.1,16.1 0 0 1 -8.87,-0.59 13.84,13.84 0 0 1 -8.46,-8.2 35.63,35.63 0 0 1 -2.09,-12.39 99.86,99.86 0 0 1 0.92,-13.48 53.34,53.34 0 0 0 0.5,-11.55 q -0.42,-4.77 -3.35,-6.53 -2.93,-1.76 -10.63,1.59 -2.51,17.08 -4.36,29.81 -1.85,12.73 -3.71,22.72 z m 35.67,-142.83 a 15.21,15.21 0 0 0 -4.77,5.11 63.05,63.05 0 0 0 -4.69,9 q -2.26,5.19 -4.44,11.47 -2.18,6.28 -3.94,12.64 -1.76,6.37 -3.18,12.22 -1.42,5.85 -2.26,10.39 a 134.21,134.21 0 0 0 18.33,-18.17 77.29,77.29 0 0 0 10,-15.32 33.32,33.32 0 0 0 3.43,-12.06 22.81,22.81 0 0 0 -1,-8.71 10.72,10.72 0 0 0 -3.52,-5.19 q -2.29,-1.68 -3.97,-1.35 z"
         id="path18"
         inkscape:connector-curvature="0"
         style="fill:#0f4c81" />
      <path
         class="cls-1"
         d="m 642.5,1192 q 0.5,2.68 1.93,2 a 12.48,12.48 0 0 0 3.27,-2.51 q 1.84,-1.84 3.94,-3.68 a 5.75,5.75 0 0 1 4.27,-1.67 q 3.35,0.5 5.19,4.6 a 29.6,29.6 0 0 1 2.18,10.47 75.6,75.6 0 0 1 -0.75,14.23 97.52,97.52 0 0 1 -3.52,15.66 84.73,84.73 0 0 1 -6.2,14.82 47.7,47.7 0 0 1 -8.79,11.89 26.47,26.47 0 0 1 -11.13,6.61 21.91,21.91 0 0 1 -22.89,-8.32 41.79,41.79 0 0 1 -6.28,-12.39 59.25,59.25 0 0 1 -1.09,-31 49.65,49.65 0 0 1 5.86,-14.32 31.54,31.54 0 0 1 10.55,-10.63 21.79,21.79 0 0 1 7.54,-3.1 19.7,19.7 0 0 1 7.2,-0.17 12.1,12.1 0 0 1 5.69,2.51 8.64,8.64 0 0 1 3.03,5 z m -14.73,68.65 q 1.67,0.67 5.11,-0.59 a 23.21,23.21 0 0 0 7.37,-4.86 43.6,43.6 0 0 0 7.7,-10 58.68,58.68 0 0 0 6.11,-16.08 23.8,23.8 0 0 1 -7.7,-5.36 26.28,26.28 0 0 1 -4.94,-7.2 25.09,25.09 0 0 1 -2.18,-7.87 20,20 0 0 1 0.42,-7.2 q -2.85,1.34 -5.53,5.94 a 66.5,66.5 0 0 0 -4.94,10.88 104.74,104.74 0 0 0 -3.77,13.23 83.41,83.41 0 0 0 -1.84,13.06 41.35,41.35 0 0 0 0.59,10.55 q 0.91,4.46 3.59,5.47 z m 27.8,-68.82 q -2,-0.5 -5.11,2.59 a 18.23,18.23 0 0 0 -4.52,8.12 20.2,20.2 0 0 0 0.25,11.05 q 1.67,6 9.21,11.39 a 18.39,18.39 0 0 0 1.42,-4 56.13,56.13 0 0 0 1.26,-6.36 q 0.5,-3.52 0.67,-7.45 a 61.12,61.12 0 0 0 -0.08,-7.2 27.15,27.15 0 0 0 -0.92,-5.53 q -0.69,-2.31 -2.19,-2.64 z"
         id="path20"
         inkscape:connector-curvature="0"
         style="fill:#0f4c81" />
      <path
         class="cls-1"
         d="m 695.75,1278 a 5.4,5.4 0 0 1 -2.26,3.6 14.06,14.06 0 0 1 -4.69,2.18 25.46,25.46 0 0 1 -6,0.84 41.67,41.67 0 0 1 -6,-0.25 22.42,22.42 0 0 1 -4.86,-1.09 q -2.09,-0.75 -2.43,-1.93 1.34,-13.56 2.85,-30.06 1.51,-16.5 4.1,-33.32 a 325.4,325.4 0 0 1 6.7,-32.57 134.47,134.47 0 0 1 10.38,-27.88 59.28,59.28 0 0 1 15.24,-19.34 q 9,-7.2 21.35,-6.7 a 14.24,14.24 0 0 1 6.62,2.26 14.72,14.72 0 0 1 5.44,6 21,21 0 0 1 1.93,9.88 q -0.09,5.95 -3.6,13.65 a 82.69,82.69 0 0 1 -11.3,17.25 167.52,167.52 0 0 1 -21.22,20.99 9.62,9.62 0 0 0 -0.92,2.59 q -0.42,1.76 -0.75,3.77 -0.33,2.01 -0.67,3.94 -0.34,1.93 -0.5,2.93 5.69,-3.85 10.46,-7 4.77,-3.15 8.71,-6 3.93,-2.84 7.37,-5.36 3.44,-2.52 6.45,-4.86 a 2.38,2.38 0 0 1 2,-0.59 1.32,1.32 0 0 1 1,1 3.29,3.29 0 0 1 -0.25,1.84 3.64,3.64 0 0 1 -1.42,1.76 q -2.35,1.84 -5.11,3.85 l -6.7,4.86 -9.38,6.78 q -5.44,3.94 -13.31,9.29 9,-2.17 14.82,-1.17 a 17.18,17.18 0 0 1 9.13,4.19 17.72,17.72 0 0 1 4.77,8 43.79,43.79 0 0 1 1.68,10.3 87.28,87.28 0 0 1 -0.17,10.8 q -0.42,5.36 -0.59,9.71 a 37.58,37.58 0 0 0 0.25,7 q 0.42,2.68 2.26,2.68 a 29.62,29.62 0 0 0 10.3,-6.7 106.06,106.06 0 0 0 10.57,-11.87 q 5.44,-7 11.05,-15.74 5.61,-8.74 11.8,-18.25 a 4.15,4.15 0 0 1 1.68,-1.17 1,1 0 0 1 1,0.17 2.93,2.93 0 0 1 0.59,0.92 2.55,2.55 0 0 1 0.25,0.92 333.46,333.46 0 0 1 -20.93,32.15 q -9,11.89 -15.82,17.67 -6.82,5.78 -11.8,6.7 a 16.1,16.1 0 0 1 -8.87,-0.59 13.84,13.84 0 0 1 -8.46,-8.2 35.59,35.59 0 0 1 -2.09,-12.39 99.86,99.86 0 0 1 0.92,-13.48 53.46,53.46 0 0 0 0.5,-11.55 q -0.42,-4.77 -3.35,-6.53 -2.93,-1.76 -10.63,1.59 -2.51,17.08 -4.35,29.81 -1.84,12.73 -3.74,22.72 z m 35.67,-142.83 a 15.22,15.22 0 0 0 -4.77,5.11 63,63 0 0 0 -4.69,9 q -2.26,5.19 -4.44,11.47 -2.18,6.28 -3.94,12.64 -1.76,6.37 -3.18,12.22 -1.42,5.85 -2.26,10.39 a 134.24,134.24 0 0 0 18.34,-18.17 77.19,77.19 0 0 0 10,-15.32 33.33,33.33 0 0 0 3.43,-12.06 22.81,22.81 0 0 0 -1,-8.71 10.72,10.72 0 0 0 -3.52,-5.19 q -2.3,-1.68 -3.98,-1.35 z"
         id="path22"
         inkscape:connector-curvature="0"
         style="fill:#0f4c81" />
      <path
         d="m 158.06,1386.78 v 24.75 c 0,5.06 2.41,8 7.31,8 a 12.8,12.8 0 0 0 6.19,-1.53 l 1.21,3.7 a 19.2,19.2 0 0 1 -7.79,1.69 c -7.39,0 -10.85,-4.74 -10.85,-11.89 v -24.75 h -8.44 v -3.7 h 8.44 v -14.14 h 3.94 v 14.14 h 14.71 v 3.7 z"
         id="path24"
         inkscape:connector-curvature="0" />
      <path
         d="m 201.62,1382.6 v 3.7 c -8.6,-1 -14.87,3.86 -14.87,17.28 v 19.29 h -3.94 v -39.78 h 3.94 v 7.39 c 2.33,-5.48 7.48,-8.84 14.87,-7.88 z"
         id="path26"
         inkscape:connector-curvature="0" />
      <path
         d="m 204.6,1402.94 c 0,-11.89 8.6,-20.82 20.33,-20.82 7.88,0 13.9,3.7 17.2,9.32 v -8.36 h 3.94 v 39.78 h -3.94 v -8.44 c -3.29,5.79 -9.32,9.4 -17.2,9.4 -11.74,0.01 -20.33,-8.99 -20.33,-20.88 z m 37.61,0.08 a 17,17 0 0 0 -16.88,-17.2 c -9.89,0 -16.8,7.39 -16.8,17.2 0,9.81 6.91,17.2 16.8,17.2 A 17,17 0 0 0 242.21,1403 Z"
         id="path28"
         inkscape:connector-curvature="0" />
      <path
         d="m 293.41,1383.09 -17.68,39.78 h -4.34 l -17.68,-39.78 h 4.18 l 15.67,35.28 15.67,-35.28 z"
         id="path30"
         inkscape:connector-curvature="0" />
      <path
         d="m 296.95,1402.94 c 0,-11.73 8,-20.82 20,-20.82 12.54,0 19.61,8.76 19.61,19.77 0,1 0,1.45 -0.08,2.41 H 301 c 0.4,9.48 6.91,15.83 16.64,15.83 7.71,0 12.78,-4.34 14.87,-8.92 l 3.78,1.13 c -2.81,5.87 -8.6,11.49 -18.64,11.49 -11.94,0 -20.7,-8.03 -20.7,-20.89 z m 35.68,-2.25 c -0.64,-8.76 -6.19,-14.87 -15.67,-14.87 a 15.8,15.8 0 0 0 -16,14.95 z"
         id="path32"
         inkscape:connector-curvature="0" />
      <path
         d="m 346.78,1364.2 h 3.94 v 58.67 h -3.94 z"
         id="path34"
         inkscape:connector-curvature="0" />
      <path
         d="m 382.22,1402.94 c 0,-11.89 8.6,-20.82 20.33,-20.82 7.88,0 13.9,3.7 17.2,9.32 v -8.36 h 3.94 v 39.78 h -3.94 v -8.44 c -3.29,5.79 -9.32,9.4 -17.2,9.4 -11.73,0.01 -20.33,-8.99 -20.33,-20.88 z m 37.61,0.08 a 17,17 0 0 0 -16.88,-17.2 c -9.88,0 -16.8,7.39 -16.8,17.2 0,9.81 6.91,17.2 16.8,17.2 A 17,17 0 0 0 419.84,1403 Z"
         id="path36"
         inkscape:connector-curvature="0" />
      <path
         d="m 475.37,1383.09 v 38.5 c 0,10.93 -8,19.13 -19.37,19.13 -9.24,0 -15.35,-4.42 -18.73,-10.45 l 3.62,-1.37 c 3.05,5.22 8,8.12 15.11,8.12 9.64,0 15.27,-6.83 15.43,-15.43 v -7.88 c -3.29,5.3 -9.32,8.68 -17.2,8.68 -11.73,0 -20.33,-8.68 -20.33,-20.17 0,-11.49 8.6,-20.09 20.33,-20.09 7.88,0 13.9,3.38 17.2,8.6 v -7.63 z m -3.86,19.21 a 16.59,16.59 0 0 0 -16.88,-16.48 c -9.89,0 -16.8,7.07 -16.8,16.48 0,9.41 6.91,16.48 16.8,16.48 a 16.59,16.59 0 0 0 16.89,-16.49 z"
         id="path38"
         inkscape:connector-curvature="0" />
      <path
         d="m 485.59,1402.94 c 0,-11.73 8,-20.82 20,-20.82 12.54,0 19.61,8.76 19.61,19.77 0,1 0,1.45 -0.08,2.41 H 489.6 c 0.4,9.48 6.91,15.83 16.64,15.83 7.71,0 12.78,-4.34 14.87,-8.92 l 3.78,1.13 c -2.81,5.87 -8.6,11.49 -18.64,11.49 -11.91,0 -20.66,-8.03 -20.66,-20.89 z m 35.68,-2.25 c -0.64,-8.76 -6.19,-14.87 -15.67,-14.87 a 15.8,15.8 0 0 0 -16,14.95 z"
         id="path40"
         inkscape:connector-curvature="0" />
      <path
         d="m 571.26,1399.4 v 23.47 h -3.94 v -23.07 c 0,-8.68 -4.5,-13.9 -12.62,-13.9 -9.08,0 -15.35,6.83 -15.35,16.8 v 20.17 h -3.94 v -39.78 h 3.94 v 8.2 c 2.73,-5.22 8,-9.16 15.75,-9.16 9.73,-0.01 16.16,6.26 16.16,17.27 z"
         id="path42"
         inkscape:connector-curvature="0" />
      <path
         d="m 581.07,1402.86 c 0,-11.81 8.68,-20.74 20.57,-20.74 9.88,0 16.31,6.35 17.92,11.57 l -3.7,1.13 c -1.53,-4.42 -7,-9 -14.22,-9 -10,0 -16.64,8 -16.64,17.2 0,9.08 6.59,17.12 16.64,17.12 7.23,0 12.7,-4.26 14.22,-8.76 l 3.7,1 c -1.61,5.38 -8,11.49 -17.92,11.49 -11.89,-0.04 -20.57,-9.12 -20.57,-21.01 z"
         id="path44"
         inkscape:connector-curvature="0" />
      <path
         d="m 663.93,1383.09 -24.83,56.66 h -4.26 l 7.71,-17.6 -18.55,-39.06 h 4.34 l 16.31,34.56 15,-34.56 z"
         id="path46"
         inkscape:connector-curvature="0" />
    </g>
  </g>
</svg>
