<?xml version="1.0" encoding="UTF-8" standalone="no"?>
<!-- Generator: Adobe Illustrator 19.0.0, SVG Export Plug-In . SVG Version: 6.00 Build 0)  -->

<svg
   xmlns:dc="http://purl.org/dc/elements/1.1/"
   xmlns:cc="http://creativecommons.org/ns#"
   xmlns:rdf="http://www.w3.org/1999/02/22-rdf-syntax-ns#"
   xmlns:svg="http://www.w3.org/2000/svg"
   xmlns="http://www.w3.org/2000/svg"
   xmlns:sodipodi="http://sodipodi.sourceforge.net/DTD/sodipodi-0.dtd"
   xmlns:inkscape="http://www.inkscape.org/namespaces/inkscape"
   version="1.1"
   id="Capa_1"
   x="0px"
   y="0px"
   viewBox="0 0 350.003 365.003"
   xml:space="preserve"
   sodipodi:docname="snowflake.svg"
   inkscape:version="0.92.4 (5da689c313, 2019-01-14)"
   width="350.00299"
   height="365.00299"><metadata
   id="metadata39"><rdf:RDF><cc:Work
       rdf:about=""><dc:format>image/svg+xml</dc:format><dc:type
         rdf:resource="http://purl.org/dc/dcmitype/StillImage" /><dc:title></dc:title></cc:Work></rdf:RDF></metadata><defs
   id="defs37" /><sodipodi:namedview
   pagecolor="#ffffff"
   bordercolor="#666666"
   borderopacity="1"
   objecttolerance="10"
   gridtolerance="10"
   guidetolerance="10"
   inkscape:pageopacity="0"
   inkscape:pageshadow="2"
   inkscape:window-width="1366"
   inkscape:window-height="706"
   id="namedview35"
   showgrid="false"
   inkscape:zoom="0.46093481"
   inkscape:cx="-96.542931"
   inkscape:cy="256.0015"
   inkscape:window-x="-8"
   inkscape:window-y="-8"
   inkscape:window-maximized="1"
   inkscape:current-layer="Capa_1" />
<path
   style="fill:#0b6eea;fill-opacity:1;stroke-width:0.67992026"
   d="m 342.78068,182.76268 c 0,-5.15277 -3.99883,-9.33058 -8.93234,-9.33058 h -14.05479 l 13.38023,-13.97676 c 3.48857,-3.64411 3.48857,-9.55225 0,-13.19567 -3.48859,-3.64343 -9.14391,-3.64412 -12.63249,0 l -26.01335,27.17313 h -13.2219 l 13.38022,-13.97676 c 3.48859,-3.64412 3.48859,-9.55226 0,-13.19568 -3.48925,-3.64412 -9.14455,-3.64412 -12.63247,0 l -26.01336,27.17313 h -61.99951 l 43.84078,-45.7954 h 36.78778 c 4.93352,0 8.93235,-4.17711 8.93235,-9.33059 0,-5.15345 -3.99883,-9.33058 -8.93235,-9.33058 h -18.92244 l 9.34947,-9.766344 h 36.78778 c 4.93351,0 8.93235,-4.177114 8.93235,-9.33059 0,-5.153475 -3.99884,-9.330589 -8.93235,-9.330589 h -18.92244 l 9.93887,-10.38199 c 3.48859,-3.644124 3.48859,-9.55227 0,-13.195694 -3.48857,-3.644113 -9.14454,-3.644113 -12.63247,0 l -9.93886,10.381991 v -19.76886 c 0,-5.153475 -3.99884,-9.330589 -8.93235,-9.330589 -4.9335,0 -8.93234,4.177114 -8.93234,9.330589 v 38.427949 l -9.34945,9.766299 V 76.013703 c 0,-5.153466 -3.99884,-9.33059 -8.93235,-9.33059 -4.9335,0 -8.93234,4.177124 -8.93234,9.33059 v 38.428017 l -43.84078,45.7954 V 95.473332 l 26.01334,-27.173157 c 3.48859,-3.644124 3.48859,-9.55226 0,-13.195683 -3.48924,-3.644124 -9.14455,-3.644124 -12.63246,0 L 181.40978,69.081256 V 55.269182 l 26.01334,-27.173157 c 3.48859,-3.644114 3.48859,-9.55226 0,-13.195694 -3.48924,-3.644113 -9.14455,-3.644113 -12.63246,0 L 181.40978,28.877105 V 14.195691 c -0.001,-5.1534488 -4.00017,-9.3305723 -8.93369,-9.3305723 -4.93284,0 -8.93233,4.1771235 -8.93233,9.3305723 V 28.877105 L 150.16353,14.900331 c -3.48858,-3.644113 -9.14389,-3.644113 -12.63248,0 -3.48857,3.644124 -3.48857,9.55227 0,13.195694 l 26.01337,27.173157 V 69.081256 L 150.1642,55.104492 c -3.48858,-3.644124 -9.14389,-3.644124 -12.63248,0 -3.48857,3.644113 -3.48857,9.552259 0,13.195683 l 26.01337,27.173157 v 64.763788 l -43.8408,-45.7954 V 76.013013 c 0,-5.153476 -3.99883,-9.33059 -8.93233,-9.33059 -4.93353,0 -8.93235,4.177114 -8.93235,9.33059 V 95.779092 L 92.490145,86.012793 V 47.584144 c 0,-5.153465 -3.998829,-9.330579 -8.932339,-9.330579 -4.933514,0 -8.932346,4.177114 -8.932346,9.330579 v 19.76609 l -9.9402,-10.379911 c -3.488582,-3.644113 -9.144557,-3.644113 -12.632476,0 -3.488582,3.644124 -3.488582,9.55227 0,13.195694 l 9.93887,10.38199 H 43.067888 c -4.933511,0 -8.932343,4.177114 -8.932343,9.330589 0,5.153476 3.998832,9.33059 8.932343,9.33059 h 36.787788 l 9.349455,9.766344 H 70.283359 c -4.933511,0 -8.932342,4.17713 -8.932342,9.33059 0,5.15347 3.998831,9.33058 8.932342,9.33058 h 36.787791 l 43.84079,45.7954 H 88.912416 L 62.898392,146.25897 c -3.488582,-3.64412 -9.143891,-3.64412 -12.632474,0 -3.488583,3.64412 -3.488583,9.55226 0,13.19567 l 13.380219,13.97677 H 50.424247 L 24.410888,146.25897 c -3.488583,-3.64412 -9.143894,-3.64412 -12.632476,0 -3.4885828,3.64412 -3.4885828,9.55226 0,13.19567 l 13.380219,13.97677 H 11.103846 c -4.9335106,0 -8.932342,4.17781 -8.932342,9.33058 0,5.15346 3.9988314,9.33057 8.932342,9.33057 h 14.055451 l -13.380219,13.97746 c -3.4885831,3.64412 -3.4885831,9.55225 0,13.19568 1.744291,1.82206 4.030098,2.73309 6.315905,2.73309 2.285806,0 4.572279,-0.91103 6.315905,-2.73309 l 26.013359,-27.17314 h 13.222555 l -13.380219,13.97746 c -3.488583,3.64412 -3.488583,9.55225 0,13.19568 1.744291,1.82206 4.030097,2.73309 6.315905,2.73309 2.285806,0 4.572279,-0.91103 6.315904,-2.73309 L 88.91175,192.09256 h 61.99952 l -43.84079,45.79538 H 70.282693 c -4.933511,0 -8.932342,4.17712 -8.932342,9.33058 0,5.15347 3.998831,9.33058 8.932342,9.33058 h 18.922438 l -9.349455,9.76629 H 43.067222 c -4.933511,0 -8.932342,4.17711 -8.932342,9.33058 0,5.15347 3.998831,9.33057 8.932342,9.33057 h 18.922437 l -9.938869,10.38199 c -3.488584,3.64411 -3.488584,9.55156 0,13.19568 1.744291,1.82205 4.030098,2.73308 6.315904,2.73308 2.285808,0 4.57228,-0.91103 6.315906,-2.73308 l 9.938869,-10.38198 v 19.76607 c 0,5.15346 3.998832,9.33057 8.932339,9.33057 4.933517,0 8.932347,-4.17711 8.932347,-9.33057 v -38.42793 l 9.349455,-9.76629 v 19.76607 c 0,5.15346 3.99883,9.33058 8.93235,9.33058 4.93351,0 8.93234,-4.17712 8.93234,-9.33058 v -38.42792 l 43.8408,-45.79538 v 64.76369 l -26.01337,27.17313 c -3.48857,3.64411 -3.48857,9.55226 0,13.19568 3.48859,3.64411 9.14456,3.64411 12.63248,0 l 13.38022,-13.97676 v 13.81137 l -26.01337,27.17313 c -3.48858,3.64412 -3.48858,9.55225 0,13.19568 1.7443,1.82206 4.0301,2.73309 6.31591,2.73309 2.28647,0 4.57228,-0.91103 6.3159,-2.73309 l 13.38022,-13.97676 v 14.6814 c 0,5.15347 3.9995,9.33058 8.93235,9.33058 4.93351,0 8.93234,-4.17711 8.93234,-9.33058 v -14.6814 l 13.38089,13.97745 c 3.48857,3.64412 9.14456,3.64412 12.63247,0 3.48791,-3.64412 3.48858,-9.55155 0,-13.19568 l -26.01336,-27.17312 v -13.81207 l 13.38089,13.97746 c 1.74429,1.82205 4.03076,2.73308 6.3159,2.73308 2.28514,0 4.57228,-0.91103 6.31591,-2.73308 3.48857,-3.64412 3.48857,-9.55157 0,-13.19568 l -26.01337,-27.17314 v -64.75951 l 43.84079,45.79537 v 38.42793 c 0,5.15346 3.99883,9.33057 8.93234,9.33057 4.93353,0 8.93235,-4.17711 8.93235,-9.33057 v -19.76608 l 9.34945,9.76629 v 38.42793 c 0,5.15347 3.99884,9.33058 8.93234,9.33058 4.93353,0 8.93235,-4.17711 8.93235,-9.33058 v -19.76607 l 9.93887,10.38198 c 1.74429,1.82206 4.03076,2.73309 6.3159,2.73309 2.28648,0 4.57228,-0.91103 6.31591,-2.73309 3.48858,-3.64412 3.48858,-9.55156 0,-13.19568 l -9.93887,-10.38198 h 18.92244 c 4.93351,0 8.93235,-4.17711 8.93235,-9.33058 0,-5.15346 -3.99884,-9.33058 -8.93235,-9.33058 h -36.78779 l -9.34946,-9.76628 h 18.92244 c 4.93351,0 8.93234,-4.17712 8.93234,-9.33059 0,-5.15346 -3.99883,-9.33058 -8.93234,-9.33058 h -36.78779 l -43.84079,-45.79537 h 61.99953 l 26.01335,27.17313 c 1.74429,1.82206 4.03076,2.73309 6.31591,2.73309 2.28513,0 4.57227,-0.91103 6.31591,-2.73309 3.48857,-3.64411 3.48857,-9.55156 0,-13.19568 l -13.3809,-13.97745 h 13.22256 l 26.01336,27.17313 c 1.74429,1.82206 4.03076,2.73309 6.31591,2.73309 2.2858,0 4.57227,-0.91103 6.3159,-2.73309 3.48858,-3.64411 3.48858,-9.55156 0,-13.19568 l -13.38088,-13.97745 h 14.05477 c 4.94217,-0.004 8.94167,-4.18128 8.94167,-9.33475 z"
   id="path2"
   inkscape:connector-curvature="0" />
<g
   id="g4"
   transform="translate(0,-147.00017)">
</g>
<g
   id="g6"
   transform="translate(0,-147.00017)">
</g>
<g
   id="g8"
   transform="translate(0,-147.00017)">
</g>
<g
   id="g10"
   transform="translate(0,-147.00017)">
</g>
<g
   id="g12"
   transform="translate(0,-147.00017)">
</g>
<g
   id="g14"
   transform="translate(0,-147.00017)">
</g>
<g
   id="g16"
   transform="translate(0,-147.00017)">
</g>
<g
   id="g18"
   transform="translate(0,-147.00017)">
</g>
<g
   id="g20"
   transform="translate(0,-147.00017)">
</g>
<g
   id="g22"
   transform="translate(0,-147.00017)">
</g>
<g
   id="g24"
   transform="translate(0,-147.00017)">
</g>
<g
   id="g26"
   transform="translate(0,-147.00017)">
</g>
<g
   id="g28"
   transform="translate(0,-147.00017)">
</g>
<g
   id="g30"
   transform="translate(0,-147.00017)">
</g>
<g
   id="g32"
   transform="translate(0,-147.00017)">
</g>
</svg>